<?xml version="1.0" encoding="utf-8"?>
<!-- Generator: Adobe Illustrator 15.1.0, SVG Export Plug-In . SVG Version: 6.00 Build 0)  -->
<!DOCTYPE svg PUBLIC "-//W3C//DTD SVG 1.1//EN" "http://www.w3.org/Graphics/SVG/1.1/DTD/svg11.dtd">
<svg version="1.1" id="Layer_1" xmlns="http://www.w3.org/2000/svg" xmlns:xlink="http://www.w3.org/1999/xlink" x="0px" y="0px"
	 width="551.386px" height="67.955px" viewBox="0 0 551.386 67.955" enable-background="new 0 0 551.386 67.955"
	 xml:space="preserve">
<path fill="#7B7B7B" d="M284.885,5.03c-2.248-2.549-4.998-3.849-8.197-3.849c-3.197,0-5.947,1.3-8.196,3.849
	c-2.25,2.599-3.399,5.698-3.399,9.346c0,3.149,0.85,5.948,2.599,8.297l-0.101-0.1c-0.149-0.1-0.1,0.1,0.15,0.65l7.346,12.995h-2.998
	v7.197h9.996v-7.197h-2.648l5.297-11.695c0.051-0.15,0.1-0.25,0.15-0.3c0-0.15,0.051-0.35,0.199-0.7l-0.199,0.15
	c2.25-2.549,3.398-5.647,3.398-9.296C288.284,10.728,287.135,7.629,284.885,5.03L284.885,5.03z M276.688,27.571
	c2.549,0,4.748-0.8,6.697-2.399l-4.947,10.845c-0.051,0.05-0.051,0.15-0.051,0.2h-2.199c0-0.1,0-0.2-0.049-0.25l-6.248-10.896
	C271.84,26.722,274.139,27.571,276.688,27.571L276.688,27.571z"/>
<path fill="#CDCBCC" d="M283.086,4.031c-2.25-2.549-4.998-3.849-8.197-3.849s-5.948,1.299-8.197,3.849
	c-2.249,2.599-3.398,5.698-3.398,9.346c0,3.148,0.85,5.948,2.599,8.297c0.1,0.149,0.2,0.25,0.25,0.35c0.05,0.05,0.1,0.15,0.15,0.25
	c0.05,0.05,0.1,0.1,0.1,0.15l1.699,1.649c1.949,1.649,4.249,2.499,6.797,2.499s4.748-0.8,6.697-2.399l1.199-1.25
	c0.051,0.05,0.201-0.1,0.5-0.399l-0.199,0.15c2.248-2.549,3.398-5.648,3.398-9.296S285.334,6.629,283.086,4.031L283.086,4.031z"/>
<path fill="#999999" d="M282.936,23.523c0.051-0.15,0.1-0.25,0.15-0.3c0-0.15,0.049-0.35,0.199-0.7c-0.299,0.3-0.449,0.45-0.5,0.399
	l-1.199,1.25l-4.947,10.845c-0.051,0.05-0.051,0.15-0.051,0.2c0.051,0,0.1,0,0.15,0.05c0.25,0.05,0.549,0.05,0.9,0v-0.05
	L282.936,23.523L282.936,23.523z"/>
<path fill="#CDCBCC" d="M280.288,35.218h-2.648v0.05c-0.352,0.05-0.65,0.05-0.9,0c-0.051-0.05-0.1-0.05-0.15-0.05h-2.199
	c0,0.05-0.049,0.05-0.199,0.05s-0.4,0-0.65-0.05c-0.15-0.05-0.199-0.05-0.25,0h0.051h-3.049v7.197h9.997V35.218L280.288,35.218z"/>
<path fill="#999999" d="M274.19,35.268c0.15,0,0.199,0,0.199-0.05c0-0.1,0-0.2-0.049-0.25l-6.249-10.896l-1.699-1.649
	c0-0.05-0.05-0.1-0.1-0.15c-0.05-0.1-0.1-0.2-0.15-0.25c-0.05-0.1-0.15-0.2-0.25-0.35c-0.05-0.05-0.1-0.1-0.1-0.1
	c-0.15-0.1-0.1,0.1,0.15,0.65l7.347,12.995c0.051-0.05,0.1-0.05,0.25,0C273.79,35.268,274.04,35.268,274.19,35.268L274.19,35.268z"
	/>
</svg>
