<?xml version="1.0" encoding="utf-8"?>
<!-- Generator: Adobe Illustrator 15.1.0, SVG Export Plug-In . SVG Version: 6.00 Build 0)  -->
<!DOCTYPE svg PUBLIC "-//W3C//DTD SVG 1.1//EN" "http://www.w3.org/Graphics/SVG/1.1/DTD/svg11.dtd">
<svg version="1.1" id="Layer_1" xmlns="http://www.w3.org/2000/svg" xmlns:xlink="http://www.w3.org/1999/xlink" x="0px" y="0px"
	 width="551.386px" height="67.955px" viewBox="0 0 551.386 67.955" enable-background="new 0 0 551.386 67.955"
	 xml:space="preserve">
<path fill="#7B7B7B" d="M248.85,17.775c-2.799-2.799-6.197-4.199-10.146-4.199c-3.949,0-7.347,1.4-10.196,4.199
	c-2.799,2.849-4.198,6.247-4.198,10.196c0,3.698,1.25,6.897,3.699,9.596c0.15,0.2,0.35,0.4,0.5,0.55c0.05,0.05,0.15,0.15,0.25,0.25
	c0.55,0.55,1.149,1,1.75,1.449c0.05,0.05,0.15,0.15,0.25,0.2c0.05,0.05,0.15,0.1,0.25,0.15c-0.05,0-0.2-0.1-0.4-0.25
	c-0.2-0.15-0.05,0.1,0.4,0.799l6.198,9.247h-4.499v8.796h12.795v-8.796h-4.048l5.998-9.946c0.05-0.1,0.2-0.4,0.5-0.899
	c0-0.05,0-0.05,0.05-0.1l-0.2,0.2l-0.35,0.25h-0.05c0.2-0.2,0.4-0.4,0.65-0.55c0.05-0.05,0.1-0.1,0.15-0.15
	c0.05-0.1,0.15-0.2,0.25-0.25c0.15-0.149,0.25-0.25,0.399-0.399s0.35-0.35,0.55-0.55c2.449-2.699,3.699-5.898,3.699-9.596
	C253.098,24.022,251.699,20.624,248.85,17.775L248.85,17.775z M232.356,40.916c1.949,0.95,4.048,1.449,6.347,1.449
	c2.749,0,5.198-0.649,7.397-1.999l-5.648,9.346c-0.05,0.05-0.1,0.15-0.1,0.25h-2.049c0-0.1,0-0.2-0.05-0.25L232.356,40.916
	L232.356,40.916z"/>
<path fill="#CDCBCC" d="M247.05,16.775c-2.799-2.799-6.197-4.198-10.146-4.198c-3.949,0-7.347,1.399-10.196,4.198
	c-2.799,2.849-4.198,6.248-4.198,10.196c0,3.698,1.25,6.897,3.699,9.596c0.15,0.2,0.35,0.4,0.5,0.55c0.05,0.05,0.15,0.15,0.25,0.25
	c0.55,0.55,1.149,1,1.75,1.45c0.05,0.05,0.15,0.15,0.25,0.2c0.05,0.05,0.15,0.1,0.25,0.15c0.05,0.05,0.2,0.1,0.45,0.25
	c0.2,0.1,0.4,0.2,0.55,0.3c0.15,0.1,0.25,0.1,0.2,0l0.15,0.2c1.949,0.95,4.048,1.449,6.348,1.449c2.749,0,5.198-0.65,7.397-1.999
	l1.199-0.8c0.05,0,0.1-0.05,0.15-0.1h-0.05c0.2-0.2,0.4-0.399,0.65-0.55c0.05-0.05,0.1-0.1,0.15-0.15c0.05-0.1,0.15-0.2,0.25-0.25
	c0.15-0.15,0.25-0.25,0.399-0.4c0.15-0.149,0.35-0.35,0.55-0.549c2.449-2.699,3.699-5.898,3.699-9.596
	C251.299,23.023,249.899,19.625,247.05,16.775L247.05,16.775z"/>
<path fill="#999999" d="M246.251,37.917l-0.25,0.3l-0.35,0.25c-0.05,0.05-0.1,0.1-0.15,0.1l-1.199,0.8l-5.648,9.346
	c-0.05,0.05-0.1,0.15-0.1,0.25c0.05,0.05,0.25,0.05,0.5,0c0.25-0.05,0.4-0.05,0.45,0c0.05,0,0.1,0,0.15,0l5.998-9.946
	c0.05-0.1,0.2-0.4,0.5-0.899C246.151,38.067,246.201,37.967,246.251,37.917L246.251,37.917z"/>
<path fill="#999999" d="M229.657,39.417c-0.25-0.15-0.399-0.2-0.45-0.25c-0.05,0-0.2-0.1-0.4-0.25c-0.2-0.15-0.05,0.1,0.4,0.799
	l6.198,9.247l-0.25,0.1c0.8-0.1,1.25-0.15,1.35-0.1c0-0.1,0-0.2-0.05-0.25l-5.897-8.796l-0.15-0.2c0.05,0.1-0.05,0.1-0.2,0
	C230.057,39.616,229.857,39.517,229.657,39.417L229.657,39.417z"/>
<path fill="#CDCBCC" d="M230.907,48.963v8.796h12.794v-8.796h-4.048c-0.05,0-0.1,0-0.15,0c-0.05-0.05-0.2-0.05-0.45,0
	c-0.25,0.05-0.45,0.05-0.5,0h-2.049c-0.1-0.05-0.55,0-1.35,0.1l0.25-0.1H230.907L230.907,48.963z"/>
</svg>
