<?xml version="1.0" encoding="utf-8"?>
<!-- Generator: Adobe Illustrator 15.1.0, SVG Export Plug-In . SVG Version: 6.00 Build 0)  -->
<!DOCTYPE svg PUBLIC "-//W3C//DTD SVG 1.1//EN" "http://www.w3.org/Graphics/SVG/1.1/DTD/svg11.dtd">
<svg version="1.1" id="Layer_1" xmlns="http://www.w3.org/2000/svg" xmlns:xlink="http://www.w3.org/1999/xlink" x="0px" y="0px"
	 width="551.386px" height="67.955px" viewBox="0 0 551.386 67.955" enable-background="new 0 0 551.386 67.955"
	 xml:space="preserve">
<path fill="#7B7B7B" d="M305.278,37.167c-1.051,0-2,0.15-2.949,0.4c-1.449,0.45-2.799,1.199-3.998,2.299
	c-1.9,1.799-2.85,3.949-2.85,6.498c0,2.449,0.9,4.598,2.75,6.397c-0.15-0.1-0.4-0.35-0.701-0.7c-0.299-0.35-0.1,0.05,0.65,1.299
	l5.098,7.347v0.05h-3.398v7.197h10.396v-7.197h-2.799l5.297-7.997l0.15-0.35c0.15-0.35,0.051-0.35-0.35,0.05
	c1.648-1.75,2.498-3.749,2.498-6.098c0-2.549-0.949-4.698-2.898-6.498c-1.148-1.1-2.498-1.849-3.949-2.299
	C307.276,37.317,306.327,37.167,305.278,37.167L305.278,37.167z M305.278,55.56c2.049,0,3.848-0.5,5.447-1.549l-4.248,6.497
	c-0.051,0.05-0.1,0.15-0.1,0.25h-2l0.15-0.05h-0.15c0-0.05-0.051-0.15-0.1-0.2l-4.449-6.447
	C301.428,55.06,303.229,55.56,305.278,55.56L305.278,55.56z"/>
<path fill="#CDCBCC" d="M310.375,38.867c-1.15-1.1-2.5-1.849-3.949-2.299c-0.949-0.25-1.898-0.399-2.949-0.399
	c-1.049,0-1.998,0.15-2.947,0.399c-1.449,0.45-2.799,1.2-4,2.299c-1.898,1.799-2.848,3.949-2.848,6.498
	c0,2.449,0.898,4.598,2.748,6.397c0-0.05,0-0.05,0.051,0l0.1,0.1c0.051,0.05,0.449,0.4,1.199,0.95l0.25,0.25
	c1.6,1,3.398,1.5,5.447,1.5c2.051,0,3.85-0.5,5.449-1.549l1.498-1.2c0.051-0.05,0.102-0.05,0.15-0.1c0.051-0.05,0.1-0.15,0.15-0.2
	c1.699-1.749,2.549-3.798,2.549-6.147C313.274,42.815,312.325,40.666,310.375,38.867L310.375,38.867z"/>
<path fill="#999999" d="M310.424,51.812l-1.498,1.2l-4.248,6.497c-0.051,0.05-0.102,0.15-0.102,0.25c0.102-0.05,0.201-0.05,0.301,0
	c0.051,0.05,0.199,0.05,0.4,0c0.199-0.05,0.35-0.05,0.398,0l5.299-7.997l0.15-0.35c0.148-0.35,0.049-0.35-0.4,0.1
	c-0.051,0.05-0.1,0.15-0.15,0.2C310.526,51.762,310.475,51.762,310.424,51.812L310.424,51.812z"/>
<path fill="#999999" d="M296.481,51.762c-0.051-0.05-0.051-0.05-0.051,0c-0.148-0.1-0.398-0.35-0.699-0.7
	c-0.299-0.35-0.1,0.05,0.65,1.299l5.098,7.347h1.1c0-0.05-0.051-0.15-0.1-0.2l-4.449-6.447l-0.25-0.25
	c-0.75-0.55-1.148-0.899-1.199-0.95L296.481,51.762L296.481,51.762z"/>
<path fill="#CDCBCC" d="M301.479,59.708v0.05h-3.398v7.197h10.395v-7.197h-2.799c-0.049-0.05-0.199-0.05-0.398,0
	c-0.201,0.05-0.35,0.05-0.4,0c-0.1-0.05-0.199-0.05-0.301,0h-1.998l0.15-0.05h-0.15H301.479L301.479,59.708z"/>
</svg>
