<?xml version="1.0" encoding="utf-8"?>
<!-- Generator: Adobe Illustrator 15.1.0, SVG Export Plug-In . SVG Version: 6.00 Build 0)  -->
<!DOCTYPE svg PUBLIC "-//W3C//DTD SVG 1.1//EN" "http://www.w3.org/Graphics/SVG/1.1/DTD/svg11.dtd">
<svg version="1.1" id="Layer_1" xmlns="http://www.w3.org/2000/svg" xmlns:xlink="http://www.w3.org/1999/xlink" x="0px" y="0px"
	 width="551.386px" height="161.464px" viewBox="0 0 551.386 161.464" enable-background="new 0 0 551.386 161.464"
	 xml:space="preserve">
<g>
	<path fill="#7B7B7B" d="M546.032,15.272l0.1-0.2c-2.449-1.449-4.448-2.199-6.098-2.199c-1.749,0-3.349,1.2-4.848,3.549
		c-1.649,2.599-2.849,3.999-3.549,4.248c-2.948-4.798-4.897-7.197-5.798-7.197c-2.099,0-4.647,2.399-7.696,7.197
		c-2.449,3.849-3.898,7.097-4.448,9.646l-0.25-0.55c-1.399,0.3-2.849,1.349-4.299,3.099c-1.049,1.25-1.799,2.449-2.249,3.499
		c-0.899-0.65-2.299-2.049-4.248-4.198c-1.449-1.6-2.499-2.399-3.249-2.399c-0.649,0-1.449,1.149-2.299,3.398
		c-0.75,1.949-1.1,3.249-1.1,3.798v0.6c-1.549-2-3.748-6.397-6.598-13.145c-2.049-4.898-4.098-7.347-6.047-7.347
		c-1.999,0-4.148,2.149-6.498,6.397c-2.749,4.948-3.548,10.046-2.499,15.293c-0.799-1.349-1.399-2.249-1.849-2.649
		c-0.25-0.25-0.5-0.35-0.85-0.35c-0.15,0-1.05,0.7-2.699,2.149c-1.6,1.399-2.599,2.099-2.999,2.099H574.87
		c-0.799-0.75-1.699-1.599-2.698-2.549c-2.149-2.049-3.199-3.898-3.199-5.598c0-0.8,0.55-2.199,1.6-4.148
		c0.05-0.05,0.1-0.15,0.149-0.2c-0.999-1.349-1.999-2.049-2.948-2.049c-0.649,0.4-1.399,0.8-2.249,1.199
		c-1.649,0.8-3.099,1.2-4.349,1.2c-0.8-1.35-2.449-3.199-4.897-5.448c-2.35-2.149-4.698-3.948-7.147-5.448l-0.1,0.1
		c-0.351-0.25-0.7-0.5-1.05-0.75C547.331,15.973,546.681,15.623,546.032,15.272L546.032,15.272z M541.683,32.016l0.15-0.45v0.6
		C541.784,32.116,541.733,32.066,541.683,32.016L541.683,32.016z"/>
	<path fill="#7B7B7B" d="M424.581,12.274c-3.549-0.25-9.347-0.7-17.394-1.299c-1.149-0.05-2.299-0.15-3.498-0.25v-0.05l-7.098,0.05
		c-2.749,0.1-7.197,0.35-13.444,0.8c-6.197,0.45-9.796,0.699-10.846,0.75l0.1,2.399c0,0.55,0.2,0.8,0.65,0.85
		c0.449,0.05,1.648-0.1,3.698-0.399c-0.101,4.148-0.2,7.646-0.25,10.445c-6.447,5.348-12.895,10.196-19.343,14.444h7.098
		c4.049-2.849,8.097-5.848,12.146-9.096c0,0.55,0,1,0,1.399c0,0.15,0,0.25-0.051,0.4c0,0.25,0,0.4,0.051,0.45
		c-0.051,0.15-0.051,0.2-0.051,0.25c-0.05,0.1-0.05,0.2-0.05,0.3c-0.449,1.849-0.85,3.849-1.299,5.897c-0.2,0.15-0.4,0.25-0.55,0.4
		h52.028c-0.1-0.6-0.199-1.199-0.3-1.849c-0.149-0.8-0.25-1.599-0.35-2.449c1.149,1.449,2.249,2.898,3.398,4.298h6.248
		c-3.648-4.398-7.247-8.996-10.696-13.744c-0.05-0.85-0.149-1.7-0.199-2.599c-0.051-0.45-0.051-0.95-0.101-1.45
		c-0.3-4.348-0.55-6.547-0.699-6.697c0.25-0.05,0.55-0.05,0.8-0.1c0.999-0.1,1.799-0.1,2.349,0.05c0.75,0.1,1.199,0.2,1.399,0.35
		l0.4-3.298C428.479,12.524,427.08,12.424,424.581,12.274L424.581,12.274z"/>
	<path fill="#7B7B7B" d="M463.964,38.813c-1.249-0.85-1.949-1.25-1.999-1.25c-1.149,0-2.049,0.799-2.649,2.449h6.647
		C465.864,40.013,465.214,39.613,463.964,38.813L463.964,38.813z"/>
	<path fill="#7B7B7B" d="M156.637,10.475l-7.097-0.05v0.05c-1.199,0.1-2.349,0.2-3.448,0.25c-13.745,1-20.942,1.5-21.591,1.549
		l0.399,3.299c0.2-0.15,0.65-0.25,1.399-0.35c0.75-0.15,1.799-0.15,3.149,0.05c-0.15,0.15-0.4,2.349-0.7,6.698
		c-0.15,2.099-0.25,3.948-0.4,5.547c-3.249,4.349-6.647,8.497-10.096,12.495h6.297c0.899-1.1,1.799-2.199,2.699-3.299
		c-0.15,1.15-0.3,2.25-0.45,3.299h53.829c-0.85-0.55-1.75-1.1-2.599-1.649c-0.35-1.699-0.75-3.349-1.1-4.898c0-0.1,0-0.2-0.05-0.3
		c0-0.05,0-0.1-0.05-0.25c0.05-0.05,0.05-0.2,0.05-0.45c-0.05-0.15-0.05-0.25-0.05-0.4c0-0.55,0-1.2,0-1.999
		c4.749,3.548,9.546,6.897,14.294,9.946h7.097c-7.147-4.498-14.344-9.596-21.491-15.244c-0.05-2.649-0.15-5.948-0.25-9.896
		c2.049,0.3,3.249,0.45,3.699,0.399c0.45-0.05,0.649-0.3,0.649-0.85l0.1-2.399c-1.05-0.05-4.648-0.3-10.846-0.75
		C163.834,10.824,159.386,10.575,156.637,10.475L156.637,10.475z"/>
	<path fill="#7B7B7B" d="M198.221,40.013h-7.097c59.826,38.685,117.503,38.685,173.131,0h-7.098
		C305.478,74.199,252.499,74.199,198.221,40.013L198.221,40.013z"/>
	<path fill="#7B7B7B" d="M124.55,40.013h-6.297c-7.647,8.946-15.744,17.093-24.291,24.49c-0.8-3.299-1.899-5.448-3.349-6.497
		c-0.7,0.699-1.799,3.848-3.249,9.446c-0.2,0.75-0.4,1.5-0.55,2.149h8.197C105.458,60.854,115.304,51.008,124.55,40.013
		L124.55,40.013z"/>
	<path fill="#7B7B7B" d="M180.628,40.013h-53.829c-0.65,4.448-1.25,8.447-1.749,11.945c-6.248,6.348-12.695,12.195-19.442,17.643
		h7.147c3.749-3.149,7.447-6.397,11.046-9.846c-0.55,3.149-1.05,6.397-1.5,9.846h45.932c1.149-0.2,2.199-0.35,3.148-0.5l0.05,0.05
		c-1,0.15-2.049,0.3-3.199,0.45h14.594c-1.05-9.296-2.25-17.693-3.599-25.14c19.642,11.745,39.034,20.092,58.276,25.14h16.644
		C230.008,65.502,205.518,55.656,180.628,40.013L180.628,40.013z M133.847,59.505c-0.05,0-0.05,0-0.05,0.05v-0.05
		c0.05-0.15,0.05-0.25,0.1-0.4v0.05l-0.05,0.2V59.505L133.847,59.505z"/>
	<path fill="#7B7B7B" d="M305.028,69.601h17.193c17.343-4.698,34.486-12.295,51.43-22.841c-0.85,4.598-1.6,9.546-2.249,14.794
		c-0.351,2.599-0.65,5.298-0.95,8.047h60.426c-0.449-3.399-0.949-6.647-1.449-9.696c3.398,3.349,6.897,6.597,10.446,9.696h7.047
		c-6.497-5.498-12.745-11.446-18.742-17.793c-0.55-3.449-1.1-7.397-1.7-11.795h-52.028
		C351.709,55.656,328.569,65.502,305.028,69.601L305.028,69.601z M419.432,59.805c0-0.05,0-0.05-0.05-0.05v-0.15l-0.05-0.2v-0.05
		c0.05,0.15,0.05,0.25,0.1,0.4V59.805L419.432,59.805z"/>
	<path fill="#7B7B7B" d="M579.218,44.361c-0.5-0.6-1.949-2.049-4.349-4.349H465.963h-6.647c-0.55,1.35-0.85,3.349-0.949,5.897
		c0.2,5.998,0.3,9.446,0.3,10.296c-1.499,1-2.549,2.749-3.148,5.248c-6.997-6.597-13.694-13.744-20.042-21.441h-6.248
		c8.047,9.946,16.594,18.993,25.64,27.139c-0.05,0.9,0,1.699,0.051,2.449h133.896C587.565,58.905,584.366,50.509,579.218,44.361
		L579.218,44.361z M526.139,59.805c0-0.25-0.05-0.55-0.149-0.899l0.149,0.1c0,0.1,0,0.15,0,0.2V59.805L526.139,59.805z"/>
	<path fill="#7B7B7B" d="M446.921,69.601h-7.047c4.147,3.648,8.446,7.097,12.794,10.396c-0.05,0.649-0.05,1.399-0.05,2.149
		c-0.999-1.35-1.999-2.549-2.998-3.599c-1.949-1.999-4.249-2.999-6.897-2.999c-1.699,0-3.449,1.599-5.248,4.798
		c-1.649,3.449-2.599,5.448-2.849,5.998c-0.65-0.5-1.25-0.95-1.8-1.299c-0.149-1.3-0.35-2.649-0.5-4.099
		c-0.449-3.948-0.949-7.747-1.449-11.345h-60.426c-0.3,2.749-0.6,5.547-0.85,8.396c-0.55,5.248-1.1,12.745-1.699,22.391h219.562
		c1.299-10.596,1.949-17.093,1.949-19.492c0-3.999-0.2-7.747-0.6-11.295H454.918c0.05,1.199,0.249,2.199,0.499,2.949
		c0.101,0,0.2,0,0.25,0v0.6c-0.1-0.2-0.2-0.4-0.25-0.6c-0.25-0.05-0.55-0.15-0.949-0.3c-0.6-0.2-1-0.3-1.25-0.3
		c-0.149,0.7-0.249,1.549-0.35,2.549C450.87,72.899,448.871,71.25,446.921,69.601L446.921,69.601z M493.303,82.396
		c0.1-0.1,0.199-0.2,0.3-0.25v0.6L493.303,82.396L493.303,82.396z M498.401,84.645c-0.05,0.6-0.05,1.2-0.05,1.749
		c-0.15-0.85-0.3-1.5-0.45-1.849L498.401,84.645L498.401,84.645z M457.467,88.144v0.45c0-0.15,0-0.25-0.05-0.4L457.467,88.144
		L457.467,88.144z M453.219,89.393h0.499c-0.05,0.55,0,1.149,0.15,1.75l-0.649,0.6V89.393L453.219,89.393z"/>
	<path fill="#7B7B7B" d="M168.233,69.601c-0.1,0.05-0.2,0.05-0.3,0.05C168.033,69.651,168.133,69.651,168.233,69.601h-45.932
		c-0.5,3.548-0.95,7.247-1.399,11.095c-0.5,4.049-0.9,7.397-1.2,9.996c-2.249,3.648-3.898,6.797-5.048,9.446v-0.6
		c0.45-2.699,0.4-4.498-0.05-5.348c-0.3-0.6-1-0.9-2.149-0.95c-1.399-0.05-2.399-0.25-3.049-0.6
		c-1.149-0.75-1.999-2.249-2.549-4.498c-0.6,0-1.6,0.2-2.999,0.6s-2.399,0.6-2.999,0.6c0-0.45-0.1-0.899-0.3-1.399
		c-0.2-0.5-0.3-0.85-0.3-1c-0.5,0.2-1.399,0.6-2.649,1.15c-1.099,0.45-1.849,0.649-2.199,0.649v-0.6
		c0.05-1.849,0.1-3.699,0.15-5.548c5.897-4.048,11.645-8.347,17.193-12.995h-7.147c-3.349,2.699-6.748,5.298-10.196,7.747
		c-0.05-1.049-0.1-2.049-0.15-3.049c-0.1-1.649-0.25-3.198-0.4-4.598c0.05-0.05,0.1-0.05,0.15-0.1h-8.197
		c-0.1,0.35-0.2,0.7-0.3,1.049c-0.85,0.65-1.75,1.35-2.599,2.049c-0.05-0.05-0.05-0.15-0.05-0.2c-0.25-1.25-0.5-2.199-0.65-2.899
		h-126.25c0.8,4.148,1.35,7.297,1.699,9.546c1.05,7.597,2.099,14.694,3.049,21.242h223.71c-0.649-9.796-1.25-17.343-1.799-22.641
		c-0.25-2.799-0.55-5.498-0.799-8.146H168.233L168.233,69.601z M65.524,74.349c0.25-0.15,0.4-0.35,0.4-0.6
		c0.05,0.15,0.1,0.35,0.15,0.5L65.524,74.349L65.524,74.349z"/>
	<path fill="#7B7B7B" d="M257.047,110.085c-23.69,0-47.331,0.15-70.972,0.399c-0.05-0.45-0.05-0.85-0.1-1.299
		c-0.2-3.149-0.4-6.047-0.55-8.796h-223.71c1.699,11.945,3.149,22.191,4.398,30.738h232.657c-0.1-0.65-0.2-1.3-0.25-1.949
		c51.08-0.75,102.259-0.65,153.588,0.35c-0.1,0.45-0.199,1-0.3,1.6h231.657c0.351-2.799,0.7-5.748,1.149-8.847
		c1.15-8.646,2.1-15.943,2.85-21.891H367.903c-0.2,2.749-0.399,5.647-0.6,8.796c-0.05,0.55-0.05,1.05-0.1,1.599
		c-29.539-0.45-59.077-0.649-88.515-0.699"/>
	<path fill="#7B7B7B" d="M322.221,69.601h-17.193c-16.793,2.949-33.736,2.949-50.879,0h-16.644
		C266.193,77.098,294.432,77.098,322.221,69.601L322.221,69.601z"/>
	<path fill="#7B7B7B" d="M40.484,11.574c-1.899,1.649-3.849,2.499-5.897,2.499c-0.5,0.5-1.35,2.449-2.549,5.897
		c-1.149,3.349-2.149,5.398-2.898,6.098c-0.65-0.65-1.5-2.349-2.549-5.098c-1-2.599-2.149-4.499-3.449-5.698
		c-2.449,10.046-3.698,15.444-3.698,16.294l-0.5,0.3l-0.45-0.4h0.05l-0.1-0.6c-2.899-5.647-4.548-8.646-4.998-8.996
		c-0.75-0.65-1.799-1-3.149-1.149c-0.25-0.05-1.399-0.05-3.449-0.05c-1.949-0.05-4.048-0.45-6.347-1.199
		c-1.15-0.4-2.149-0.8-2.999-1.2c-6.297,1.999-9.546,2.999-9.696,2.999c-1,0-2.299-0.7-3.898-2.1
		c-1.55-1.399-2.949-2.099-4.199-2.099c-2.549,0-4.748,0.799-6.547,2.449c-0.35,0.35-0.7,0.65-0.949,1
		c-0.55-1.049-1.05-1.799-1.5-2.249c-0.75,1.849-2.149,3.299-4.298,4.298c-1.2,0.55-3.149,1.399-5.848,2.549
		c-4.948,2.799-7.397,9.446-7.397,19.992c0,4.448,0.649,9.596,1.949,15.543c0.7,3.349,1.299,6.348,1.849,8.947h126.25
		c-0.2-0.65-0.35-1.1-0.5-1.299c-3.249,0.649-5.148,0.35-5.698-0.9c-0.35-0.65-0.2-2.249,0.4-4.698c0.55-2.449,0.6-4.148,0.05-5.198
		c-0.85-1.649-3.099-2.499-6.748-2.499c-0.4-2.849-0.75-6.747-1-11.646c-0.55-3.448-2.249-5.198-5.048-5.198
		c-3.999,0-7.647,1.399-10.896,4.249c0-0.05,0.4-0.9,1.25-2.649c0.85-2.049,1.25-3.848,1.25-5.498c0-3.149-0.45-4.848-1.399-5.098
		c-0.649-0.149-2.249-0.149-4.698,0c0-0.649,0.1-1.749,0.3-3.398c0.2-1.549,0.3-2.649,0.3-3.249l-0.6-0.05
		c-0.3,0.3-0.9,0.8-1.85,1.45c-1.25,0.899-2.249,1.399-2.949,1.549c0-0.4-0.2-0.6-0.6-0.6v-5.398c0.4-2.799,0.6-6.597,0.6-11.396
		C44.432,8.426,42.783,9.575,40.484,11.574L40.484,11.574z M-25.14,27.418c-0.05-0.2-0.1-0.45-0.15-0.7c0.1,0.35,0.15,0.5,0.2,0.55
		v0.6L-25.14,27.418L-25.14,27.418z M50.18,55.007v-0.6l0.25,0.2C50.38,54.757,50.28,54.857,50.18,55.007L50.18,55.007z"/>
	<path fill="#7B7B7B" d="M199.97,142.022c-0.45-4.148-0.85-7.797-1.2-10.896H-33.886c2.499,17.443,3.998,27.639,4.498,30.688
		c1.949,12.346,3.599,18.543,4.898,18.543c0.55,0,1.2-0.1,1.85-0.301c0.649-0.199,1-0.299,1.149-0.299v-0.7h-2.749
		c2.549-0.05,5.897-0.499,10.046-1.249c-0.15,4.548-0.3,9.496-0.45,14.844h572.971c-0.15-2.799-0.2-5.548-0.1-8.197
		c0-2.248,0.149-5.147,0.5-8.596c0.05-0.4,0.05-0.801,0.1-1.15c0.35-3.648,0.899-7.246,1.6-10.695c1.349,0.15,2.799,0.35,4.348,0.6
		h14.994c0-3.848,1.25-14.994,3.698-33.486H351.809c-0.25,1.199-0.5,2.599-0.8,4.248c-1.299,0.949-2.948,2.25-4.947,3.898
		c-1.25,1.05-3.149,1.75-5.648,2.1c-3.398,0.299-5.997,0.799-7.797,1.449c-1.849,0.65-4.748,3.848-8.796,9.496
		c-4.049,5.648-9.297,8.047-15.744,7.197c1.1,1.749-1.549,3.248-7.896,4.498s-9.597,4.148-9.746,8.597c-0.45,0-0.7-0.2-0.85-0.601
		c-0.101-0.249-0.15-0.749-0.15-1.398c-15.644,1.249-22.991,2.398-21.941,3.448c1.049,1.05-2.949,1.55-11.896,1.55
		c-0.1,0-0.899,0.299-2.399,0.949c-1.899-1.75-3.299-3.748-4.148-6.047c-0.4-1.1-1.299-3.85-2.749-8.297
		c-1.35-0.35-2.199-0.7-2.449-1.15c-0.15-0.25-0.85-0.449-2.149-0.699c-1.15-3.849-2.399-5.998-3.649-6.397
		c-0.75-0.95-1.699-1.3-2.749-0.999c-1.1,0.299-2.449,0.249-3.999-0.201l-2.299-4.098c-1.349-0.55-3.599-0.699-6.647-0.449
		c-1.2-0.75-2.949-1.2-5.198-1.35c-5.598-0.301-10.696-1.6-15.294-3.898C201.22,142.622,200.57,142.322,199.97,142.022
		L199.97,142.022z M155.688,168.211c-0.15,0-0.3,0-0.5-0.05c-0.1,0.15-0.2,0.25-0.35,0.4c-0.2,0.199-0.5,0.499-0.9,0.898l0.05-1.699
		c0.45,0.15,0.85,0.301,1.2,0.4c0.05-0.051,0.05-0.1,0.1-0.15L155.688,168.211L155.688,168.211z"/>
	<path fill="#7B7B7B" d="M6.847,232.085c0-1.1,4.598-1.049,13.795,0.15c10.446,1.6,16.893,2.549,19.342,2.898
		c2.049,0.301,4.848,0.4,8.397,0.25c5.548-0.149,8.946-0.25,10.296-0.25c5.897,0.051,18.692,0.85,38.435,2.449
		c10.146,0.85,18.692,1.449,25.59,1.85c6.197,0.35,11.045,0.5,14.544,0.5c10.596,0,24.291-1.25,41.083-3.799v1.199
		c0.2,0,1.699-0.149,4.448-0.449c0.5,2.1,1.05,4.298,1.6,6.598c3.249-1.15,7.847-2.25,13.744-3.199
		c11.545-1.949,27.189-2.949,46.881-2.949c6.847,0,18.693,1.4,35.436,4.199c-0.1,0.199-0.2,0.399-0.3,0.6
		c4.748,1.648,10.945,3.049,18.492,4.248c6.747,1.049,13.045,1.699,18.893,1.949c10.046,1.949,20.042,3.848,30.088,5.797h25.74
		c2.148-0.749,4.348-1.648,6.597-2.698c4.849-2.3,8.797-5.048,11.896-8.297c12.396-2.099,25.39-5.048,38.984-8.847
		c5.698-1.6,12.845-3.598,21.441-5.997c4.099-1.149,8.547-2.399,13.295-3.749c7.646-1.85,14.994-3.098,22.041-3.799
		c4.398-0.449,8.696-0.648,12.845-0.648c4.849,0,9.946,0.199,15.394,0.648c4.998,0.4,10.246,1,15.744,1.75
		c4.848,0.65,9.347,1.399,13.495,2.199c3.348,0.65,6.497,1.299,9.445,1.999h7.897l0.1-3.599c-0.05-0.35-0.1-1.1-0.25-2.35
		c-0.05-0.249-0.05-0.449-0.1-0.699c-0.45-2.599-1.149-6.747-2.1-12.494c-0.949-5.199-1.499-10.146-1.749-14.895H-14.644
		c-0.3,8.447-0.65,17.793-1.05,28.088c-0.15,3.449-0.25,7.048-0.399,10.746v2.449c1.949,0.15,5.897-0.1,11.745-0.75
		c5.248-0.6,8.997-0.949,11.195-1.049V232.085L6.847,232.085z M492.303,208.396c-0.5,0.199-0.649,0.149-0.5-0.15
		C492.453,208.246,492.603,208.295,492.303,208.396L492.303,208.396z"/>
	<path fill="#999999" d="M370.152,130.776c-1.649,0.25-2.699,0.35-3.148,0.35c-0.85,0-2.199-0.35-4.049-1
		c-1.899-0.65-3.248-1-4.098-1c-1.6,0-4.398,1.399-8.347,4.249c-1.45,1.05-3.499,2.649-6.248,4.897
		c-1.249,1.051-3.148,1.75-5.647,2.1c-3.398,0.3-5.998,0.8-7.797,1.449c-1.85,0.65-4.748,3.849-8.797,9.496
		c-4.048,5.648-10.03,4.2-13.872,6.216c0,0-3.421,4.23-9.769,5.479c-6.347,1.25-9.596,4.148-9.746,8.598
		c-0.449,0-0.699-0.201-0.85-0.601c-0.1-0.249-0.149-0.749-0.149-1.399c-15.644,1.25-22.991,2.398-21.941,3.449
		c1.049,1.049-2.949,1.549-11.896,1.549c-0.15,0-2.299,0.85-6.447,2.6c-4.148,1.699-6.348,2.549-6.647,2.549
		c-1.049,0-2.199-0.5-3.548-1.5c-1.299-1-2.499-1.5-3.599-1.5c-12.045,2-18.493,3-19.242,3c-1.2,0-4.148,1.499-8.847,4.498
		c-4.648,2.998-8.446,4.498-11.396,4.498c-0.85,0-2.399-0.35-4.748-1c-2.349-0.649-3.898-1-4.748-1c-3.648,0-5.998,1.4-7.147,4.148
		c-0.65,1.55-0.95,4.398-0.95,8.447c0,7.146,0.1,11.745,0.35,13.895c0.649,6.747,2.599,16.493,5.748,29.238
		c3.249-1.15,7.847-2.25,13.745-3.199c11.545-1.949,27.189-2.949,46.881-2.949c10.446,0,32.287,3.199,65.524,9.646
		c16.643,3.199,33.187,6.398,49.63,9.597c5.897,0,12.495-1.7,19.792-5.147c11.396-5.398,17.942-13.445,19.692-24.191
		c0.85-5.348,1.199-13.594,1.149-24.84c-0.051-3.348,0.149-5.897,0.6-7.547c0.6-2.148,1.749-3.848,3.398-5.098
		c2.599-2,5.148-5.098,7.597-9.246c2.999-5.148,4.499-9.946,4.499-14.494c0-12.246-5.349-22.242-16.094-30.088
		c-4.249-2.75-7.547-4.898-9.896-6.448c-3.948,0.25-7.797,0.649-11.596,1.149C374.35,130.177,371.901,130.526,370.152,130.776
		L370.152,130.776z"/>
	<path fill="#7B7B7B" d="M395.692,146.021c-1.449,1.498-3.948,2.248-7.397,2.248c-2.448,0-19.192,3.898-50.229,11.746
		c-4.349,4.548-9.246,6.497-14.595,5.748c-9.496,5.997-18.093,11.994-25.839,17.992c-2.449-2.648-5.099-4.348-7.947-5.049
		c-2.898-0.749-4.748-1.099-5.598-1.099c-0.55,0-3.898,0.55-10.046,1.599c-6.147,1.051-9.996,1.55-11.545,1.55
		c-2.099-0.35-4.249-1.05-6.498-2.149c-4.398-2.199-7.297-5.248-8.747-9.096c-0.4-1.1-1.299-3.849-2.749-8.297
		c-1.35-0.35-2.199-0.699-2.449-1.149c-0.15-0.25-0.85-0.45-2.149-0.7c-1.15-3.848-2.399-5.998-3.649-6.396
		c-0.75-0.95-1.699-1.301-2.749-1c-1.1,0.3-2.449,0.25-3.999-0.2l-2.299-4.099c-1.349-0.549-3.598-0.699-6.647-0.449
		c-1.2-0.75-2.949-1.199-5.198-1.35c-5.598-0.301-10.695-1.6-15.294-3.898c-4.598-2.35-8.146-4.049-10.646-5.098
		c-3.149-1.35-7.347-2.949-12.695-4.699c-0.7,0.65-1.45,1.301-2.299,1.949c-0.95,0.7-2.249,1.65-3.898,2.899
		c-2.749,2.249-4.098,5.698-4.098,10.246c0,6.946,2.349,20.392,7.047,40.333c4.698,19.943,7.047,31.588,7.047,34.986
		c0,2.699-0.1,4.248-0.25,4.648c-0.05,0.1-1.299,1.75-3.749,4.998v4.098c0.35,0,5.448-0.6,15.244-1.748
		c10.646-1.25,17.993-2,22.141-2.35c1.549-0.15,4.348-0.85,8.347-2.1c4.848-1.549,9.946-2.848,15.194-3.798
		c18.842-3.499,48.231-5.248,88.115-5.248c14.794,0,32.837,0.85,54.128,2.599c21.242,1.699,34.736,2.549,40.484,2.549
		c-5.647-5.647-10.246-21.342-13.745-46.98c-1.549-12.745-2.698-21.592-3.349-26.539c-1.1-8.297-2.148-13.096-3.148-14.445
		c0,0.65-0.35,1-0.999,1C397.791,142.722,396.691,144.97,395.692,146.021L395.692,146.021z"/>
	<path fill="#999999" d="M80.917,67.302c-3.249,0.65-5.147,0.35-5.697-0.899c-0.35-0.65-0.2-2.249,0.399-4.698
		c0.55-2.449,0.6-4.148,0.05-5.198c-0.85-1.649-3.099-2.499-6.748-2.499c-0.4-2.849-0.75-6.748-1-11.646
		c-0.55-3.449-2.249-5.198-5.048-5.198c-3.999,0-7.647,1.399-10.896,4.248c0-0.05,0.4-0.899,1.25-2.649
		c0.85-2.049,1.25-3.848,1.25-5.498c0-3.149-0.45-4.848-1.4-5.098c-0.649-0.15-2.249-0.15-4.698,0c0-0.65,0.1-1.749,0.3-3.398
		c0.2-1.549,0.3-2.649,0.3-3.249l-0.6-0.05c-0.3,0.3-0.9,0.8-1.85,1.45c-1.25,0.899-2.249,1.399-2.949,1.549c0-0.4-0.2-0.6-0.6-0.6
		v-5.397c0.4-2.799,0.6-6.598,0.6-11.396c-0.95,0.35-2.599,1.499-4.898,3.499c-1.899,1.649-3.849,2.499-5.897,2.499
		c-0.5,0.5-1.35,2.449-2.549,5.897c-1.149,3.349-2.149,5.398-2.898,6.098c-0.65-0.65-1.5-2.349-2.549-5.098
		c-1-2.599-2.149-4.498-3.448-5.697c-2.449,10.046-3.699,15.443-3.699,16.293l-0.5,0.3l-0.45-0.4l-0.05-0.6
		c-2.899-5.648-4.548-8.647-4.998-8.997c-0.75-0.65-1.799-1-3.149-1.15c-0.25-0.05-1.399-0.05-3.448-0.05
		c-1.949-0.05-4.049-0.45-6.348-1.199c-1.149-0.4-2.149-0.8-2.999-1.2c-6.297,1.999-9.546,2.999-9.696,2.999
		c-1,0-2.299-0.699-3.898-2.099c-1.549-1.4-2.949-2.1-4.199-2.1c-2.549,0-4.748,0.8-6.547,2.449c-0.35,0.35-0.7,0.65-0.949,1
		c-0.55-1.049-1.05-1.799-1.5-2.249c-0.75,1.849-2.149,3.299-4.298,4.298c-1.2,0.55-3.149,1.399-5.848,2.549
		c-4.948,2.799-7.397,9.446-7.397,19.992c0,4.448,0.649,9.596,1.949,15.544c1.849,8.646,2.999,14.844,3.548,18.492
		c0.75,5.248,1.5,10.296,2.149,15.094h36.235C-1.5,85.944,0.1,81.996,0,81.346c-0.25-1.099-0.7-1.949-1.399-2.549
		c-0.25-0.2-0.5-0.35-0.8-0.5c-3.749-1.85-7.397-3.949-11.045-6.348c-1.35-0.7-2.949-1.1-4.798-1.2
		c-0.1-2.299-0.25-5.348-0.45-9.196c0-1.25,0.1-2.499,0.25-3.749c0.2-1.549,0.5-3.148,0.95-4.748c0.4-1.5,0.8-2.749,1.199-3.698
		c0.35,0,1.45,0.2,3.199,0.55c1.75,0.35,2.849,0.55,3.399,0.55c0.35,0,4.298-1.75,11.845-5.298
		c6.547-2.999,11.295-4.448,14.344-4.299l0.45,0.4c2.749,4.848,4.348,7.547,4.798,8.097c1.549,1.949,4.798,3.499,9.646,4.648
		c10.146,2.349,15.344,3.599,15.594,3.648c0,0.55,0.15,1.299,0.4,2.199c0.25,0.95,0.5,1.699,0.8,2.249v0.55
		c0.1-0.15,0.2-0.25,0.25-0.4v-0.05c1.1-1.649,2.199-3.249,3.299-4.898c2.349-3.549,3.798-5.498,4.348-5.748
		c0.5,0.4,0.95,1.25,1.3,2.549c0.55,1.849,0.899,4.698,1.049,8.446c0,0.05,0,0.1,0,0.15c0,0.35,0,0.75,0,1.099c0,0.35,0,0.75,0,1.1
		c0.05,4.848,0.05,7.447,0.05,7.797c1.199,0.55,2.399,0.55,3.598,0c0.05,0.25,0.15,0.5,0.2,0.85c0,0.15,0,0.3,0.05,0.45
		c0.25,1.6,0.35,3.949,0.35,7.098c0.1-0.1,0.4-0.3,0.85-0.6l0.55-0.05c0.85,2.349,1.549,3.948,2.149,4.798l0.2,0.15
		c0,0,0,0.05-0.05,0.1c1.2,1.549,2.699,2.349,4.448,2.449c-2.049,0.55-3.698,2.149-4.898,4.698c-0.1,0.15-0.2,0.35-0.25,0.6h46.981
		l-0.05-0.05c-0.3-0.6-1-0.899-2.149-0.949c-1.399-0.05-2.399-0.25-3.049-0.6c-1.149-0.75-1.999-2.249-2.549-4.498
		c-0.6,0-1.6,0.2-2.999,0.6s-2.399,0.6-2.999,0.6c0-0.45-0.1-0.9-0.3-1.399c-0.2-0.5-0.3-0.85-0.3-1c-0.5,0.2-1.399,0.6-2.649,1.149
		c-1.1,0.45-1.849,0.65-2.199,0.65v-0.6c0.2-4.648,0.15-9.296-0.15-13.844c-0.55-9.047-2.099-14.444-4.648-16.294
		c-0.7,0.7-1.799,3.849-3.249,9.446c-1.399,5.198-2.299,8.347-2.699,9.496c-0.05,0.2-0.1,0.35-0.15,0.4v-0.6
		c0-0.6-0.2-1.999-0.649-4.249C81.567,69.151,81.167,67.752,80.917,67.302L80.917,67.302z M-26.889,26.269v0.6l-0.05-0.45
		c-0.05-0.35-0.2-0.699-0.35-1.099C-27.039,25.918-26.939,26.218-26.889,26.269L-26.889,26.269z M48.631,53.558v0.05l-0.25-0.2
		L48.631,53.558L48.631,53.558z"/>
	<path fill="#999999" d="M126.75,79.347c-1.6,0-4.148,2.799-7.697,8.447c-1.25,1.949-2.299,3.748-3.249,5.447h16.943
		c-0.05-0.05-0.05-0.1-0.05-0.149C131.048,83.945,129.048,79.347,126.75,79.347L126.75,79.347z"/>
	<path fill="#999999" d="M65.874,93.242c-0.75,1.649-1.799,4.298-3.048,7.896c0.15,0.15,1.149,0.45,3.048,0.8
		c1.85,0.35,2.799,1.649,2.849,3.949c0,0.85,0,1.649-0.05,2.449c1.099-2.149,2.249-3.099,3.499-2.749
		c0.799,0.15,1.349,0.7,1.599,1.6c-0.35-3.798,0.2-5.848,1.75-6.098c1.549-0.3,2.549-0.95,2.999-1.899s1.35-1.749,2.649-2.299
		c1.25-0.55,3.599-0.85,6.947-0.85c2.149,0,3.499,0.1,4.048,0.3c0.65,0.25,1.2,1.149,1.75,2.699s1.1,3.449,1.649,5.698
		s0.949,4.748,1.1,7.447c0.6,0,1.599-0.2,2.999-0.6c1.399-0.35,2.399-0.55,2.999-0.55c0.05,0.05,0.05,0.15,0.1,0.25
		c0.35,0.8,0.5,2.199,0.5,4.198c0.55,0.05,1.899-0.35,3.948-1.1c2-0.75,3.099-1.149,3.249-1.1c0.75,2.849,6.597,5.248,17.443,7.197
		c11.396,1.6,17.843,2.749,19.292,3.399c0,3.249,1,6.847,3.048,10.896c1.899,3.748,2.899,8.396,3.049,13.944v0.351
		c0,0.25,0,0.499,0,0.749c0,1.55-0.1,2.399-0.25,2.599c-0.6,0.65-2.649,1.15-6.198,1.5c-5.198,0.549-26.39,1.449-63.524,2.799
		c-12.195,0.449-32.387,3.998-60.626,10.746c-0.55,0.149-1.1,0.25-1.649,0.399l-1.599,0.399c1.2,1.949,2.449,3.398,3.699,4.248
		c1.299,0.9,2.999,1.35,5.098,1.35c2.849,0,7.597-0.75,14.244-2.199c8.896-2.148,16.144-3.848,21.792-5.147
		c23.041-5.349,44.032-8.747,63.075-10.097c30.938-2.199,49.88-4.048,56.827-5.497c3.749-0.8,6.148-1.749,7.197-2.899
		c0.7-0.749,1.05-2.049,1.05-3.998c0-1.199-0.55-2.549-1.649-4.098c-1.149-1.699-2.599-3.049-4.348-3.999
		c-2.199-1.199-5.598-3.798-10.246-7.797c-4.198-3.648-6.397-5.448-6.647-5.448c-3.449,0-5.948-0.6-7.397-1.799
		c-1.5-1.2-2.749-1.799-3.749-1.799c-0.75,0-2.049,0.2-3.948,0.55c-1.75,0.15-3.099-0.2-4.148-1.149
		c-1.449-1.299-2.349-2.849-2.799-4.598c-0.35-1.399-0.65-2.099-0.9-2.099c-0.399,0-1.399,0.4-3.049,1.25
		c-1.649,0.85-2.499,1.25-2.649,1.25c-1,0-1.499-0.25-1.499-0.7v-5.998c-0.65,0-1.5,0.2-2.599,0.6s-1.849,0.6-2.199,0.6
		c0-3.499-0.6-8.696-1.849-15.543h-16.943c-1.1,1.949-1.999,3.749-2.699,5.398c-0.1,0.149-0.2,0.35-0.25,0.5v-0.6
		c0.45-2.649,0.45-4.448,0-5.298H65.874L65.874,93.242z"/>
	<path fill="#999999" d="M-10.546,105.736c2.299-4.898,4.249-9.046,5.798-12.495h-36.235c5.748,40.334,9.046,62.824,9.796,67.572
		c1.949,12.346,3.599,18.543,4.898,18.543c0.55,0,1.2-0.1,1.85-0.3c0.649-0.2,1-0.3,1.149-0.3v-0.699h-3.149
		c0.9-0.051,1.949-0.101,3.099-0.201c4.148-0.398,9.796-1.449,16.943-3.098c3.549-0.801,12.145-2.949,25.84-6.498
		c-0.05-0.05-0.15-0.15-0.2-0.199c-0.949-0.85-3.749-1.75-8.497-2.699c-5.248-1.05-11.895-7.396-19.992-19.092
		c-4.548-6.648-6.697-13.795-6.397-21.542C-15.394,118.731-13.694,112.384-10.546,105.736L-10.546,105.736z"/>
	<polygon fill="#6A6A6A" points="48.631,53.558 48.381,53.407 48.631,53.607 48.631,53.558 	"/>
	<polygon fill="#6A6A6A" points="16.744,30.467 16.644,29.867 16.693,30.467 16.744,30.467 	"/>
	<path fill="#7B7B7B" d="M-9.496,50.458c-0.55,0-1.649-0.2-3.398-0.55c-1.75-0.35-2.849-0.55-3.199-0.55
		c-0.4,0.95-0.8,2.199-1.2,3.699c-0.45,1.599-0.75,3.199-0.95,4.748c-0.15,1.25-0.25,2.499-0.25,3.749
		c0.2,3.849,0.35,6.897,0.45,9.196c1.849,0.1,3.448,0.5,4.798,1.2c3.648,2.399,7.297,4.498,11.045,6.347c0.3,0.15,0.55,0.3,0.8,0.5
		c0.7,0.6,1.149,1.449,1.399,2.549c0.15,0.95-3.349,9.046-10.546,24.39c-3.148,6.647-4.848,12.995-5.098,18.993
		c-0.3,7.747,1.849,14.894,6.397,21.542c8.097,11.695,14.744,18.042,19.992,19.092c4.748,0.949,7.547,1.85,8.497,2.699
		c0.05,0.049,0.15,0.149,0.2,0.199l1.599-0.399c0.55-0.149,1.1-0.25,1.649-0.399c28.239-6.748,48.431-10.297,60.626-10.746
		c37.135-1.35,58.327-2.25,63.524-2.799c3.548-0.35,5.598-0.85,6.197-1.5c0.15-0.199,0.25-1.049,0.25-2.599c0-0.25,0-0.499,0-0.749
		v-0.351c-0.15-5.548-1.149-10.196-3.049-13.944c-2.049-4.048-3.049-7.647-3.049-10.896c-1.449-0.65-7.896-1.799-19.292-3.399
		c-10.846-1.949-16.693-4.348-17.443-7.197c-0.15-0.05-1.25,0.35-3.249,1.1c-2.049,0.75-3.398,1.15-3.948,1.1
		c0-1.999-0.15-3.398-0.5-4.198c-0.05-0.1-0.05-0.2-0.1-0.25c-0.6,0-1.6,0.2-2.999,0.55c-1.399,0.4-2.399,0.6-2.999,0.6
		c-0.15-2.699-0.549-5.198-1.099-7.447s-1.1-4.148-1.649-5.698s-1.1-2.449-1.75-2.699c-0.55-0.2-1.899-0.3-4.048-0.3
		c-3.349,0-5.698,0.3-6.947,0.85c-1.299,0.55-2.199,1.349-2.649,2.299s-1.449,1.6-2.999,1.899c-1.55,0.25-2.099,2.299-1.75,6.098
		c-0.25-0.9-0.8-1.45-1.599-1.6c-1.25-0.35-2.399,0.6-3.499,2.749c0.05-0.8,0.05-1.599,0.05-2.449c-0.05-2.299-1-3.599-2.849-3.949
		c-1.899-0.35-2.898-0.65-3.049-0.8c1.45-4.048,2.549-6.847,3.299-8.497c1.2-2.549,2.849-4.148,4.898-4.698
		c-1.749-0.1-3.249-0.899-4.448-2.449c0-0.05,0-0.05,0-0.05c-0.05-0.05-0.1-0.15-0.15-0.2c-0.6-0.85-1.299-2.449-2.149-4.798
		l-0.55,0.05c-0.45,0.3-0.75,0.5-0.85,0.6c0-3.149-0.1-5.498-0.35-7.098c-0.05-0.15-0.05-0.3-0.05-0.45
		c-0.05-0.35-0.15-0.6-0.2-0.85c-1.199,0.55-2.399,0.55-3.598,0c0-0.35,0-2.949-0.05-7.797c0-0.35,0-0.75,0-1.1c0-0.35,0-0.75,0-1.1
		c0-0.05,0-0.1,0-0.15c-0.15-3.749-0.5-6.597-1.049-8.446c-0.35-1.3-0.8-2.149-1.3-2.549c-0.55,0.25-1.999,2.199-4.348,5.748
		c-1.1,1.649-2.199,3.249-3.299,4.898v0.05c-0.05,0.15-0.15,0.25-0.25,0.4v-0.55c-0.3-0.55-0.55-1.299-0.8-2.249
		c-0.25-0.9-0.4-1.649-0.4-2.199c-0.25-0.05-5.448-1.299-15.594-3.648c-4.848-1.15-8.097-2.699-9.646-4.648
		c-0.45-0.55-2.049-3.249-4.798-8.097l-0.45-0.4c-3.049-0.15-7.797,1.3-14.344,4.298C-5.198,48.709-9.146,50.458-9.496,50.458
		L-9.496,50.458z"/>
	<path fill="#CDCBCC" d="M195.222,153.967c1.749-1.749,2.299-4.599,1.549-8.497c0.25-0.049,0.5-0.149,0.799-0.25
		c0.35-0.149,0.7-0.199,1.05-0.25c-0.15-1.199-0.3-2.448-0.45-3.798c-0.85-7.797-1.549-13.745-2.049-17.893
		c1.549,0.3,0.5-0.35-3.199-1.899c-3.049-1.75-4.398-4.148-4.098-7.097c-1.949,0.15-12.245,1.199-30.988,3.148
		c-8.497,0.85-15.594,1.55-21.292,2c-6.947,0.55-11.845,0.85-14.594,0.85c-22.691-0.8-34.536-1.2-35.536-1.2
		c-11.945,0-25.59,0.95-40.884,2.899c1.35,1,3.699,3.548,6.947,7.647c3.849,4.898,6.748,8.197,8.597,9.896
		c2.249,2.35,3.898,4.148,5.048,5.298c2.049,2.05,3.799,3.099,5.198,3.198c4.148,0.25,8.247,0.85,12.195,1.75
		c3.149,0.85,4.798,1.25,4.998,1.25c5.048-0.551,8.447-0.75,10.196-0.601c2.549,0.149,5.898,1.949,9.946,5.397
		c4.148,3.499,7.547,6.398,10.196,8.646c5.048,4.249,7.647,6.398,7.897,6.398c1.25,0,4.848-0.9,10.896-2.699
		c6.348-1.949,10.146-3.049,11.346-3.349c0.2,0.55,1,1.1,2.399,1.649c0.3,0.1,0.55,0.199,0.799,0.3l0.25-9.146
		c0.75-0.649,1.25-1.55,1.5-2.698c0.3-1.15,0.5-2.949,0.55-5.398c0.15-3.248-0.65-6.848-2.349-10.846
		c-1.649-3.998-2.499-6.147-2.499-6.397c0.05-0.55,0.2-1.849,0.45-3.999c0.05-0.6,0.15-1.149,0.2-1.599
		c1.649-0.1,3.599-0.25,5.748-0.4c5.048-0.4,7.747-0.6,8.097-0.6c5.448,0,10.396,1.749,14.744,5.248
		c4.348,3.499,7.097,6.098,8.147,7.797c1.049,1.649,1.899,5.198,2.549,10.546c0.6,5.148,0.3,8.097-0.95,8.797
		C191.923,156.466,194.123,155.117,195.222,153.967L195.222,153.967z"/>
	<path fill="#999999" d="M196.771,145.47c0.75,3.898,0.2,6.748-1.549,8.497c-1.1,1.149-3.299,2.499-6.598,4.099
		c1.25-0.7,1.549-3.648,0.95-8.797c-0.65-5.348-1.5-8.896-2.549-10.546c-1.05-1.699-3.799-4.298-8.147-7.797
		c-4.348-3.499-9.296-5.248-14.744-5.248c-0.35,0-3.049,0.2-8.097,0.6c-2.149,0.15-4.098,0.3-5.748,0.4c-0.05,0.45-0.15,1-0.2,1.599
		c-0.25,2.149-0.4,3.449-0.45,3.999c0,0.25,0.85,2.399,2.499,6.397c1.699,3.998,2.499,7.598,2.349,10.846
		c-0.05,2.449-0.25,4.248-0.55,5.398c-0.25,1.148-0.75,2.049-1.5,2.698l-0.25,9.146c0.45,0.149,0.85,0.3,1.2,0.399
		c0.05-0.05,0.05-0.1,0.1-0.149l0.4,0.2c-0.15,0-0.3,0-0.5-0.051c-0.1,0.15-0.2,0.25-0.35,0.4c-0.2,0.199-0.5,0.5-0.9,0.899
		l0.05-1.699c-0.25-0.101-0.5-0.2-0.799-0.3c-1.399-0.55-2.199-1.1-2.399-1.649c-1.199,0.3-4.998,1.399-11.345,3.349
		c-6.048,1.799-9.646,2.699-10.896,2.699c-0.25,0-2.849-2.149-7.897-6.398c-2.649-2.248-6.047-5.147-10.196-8.646
		c-4.048-3.448-7.397-5.248-9.946-5.397c-1.749-0.149-5.148,0.05-10.196,0.601c-0.2,0-1.849-0.4-4.998-1.25
		c-3.948-0.9-8.047-1.5-12.195-1.75c-1.4-0.1-3.149-1.148-5.198-3.198c-1.149-1.149-2.799-2.948-5.048-5.298
		c-1.849-1.699-4.748-4.998-8.597-9.896c-3.249-4.099-5.598-6.647-6.947-7.647c-1.149,0.15-2.249,0.25-3.398,0.4
		c-16.693,2.199-29.688,3.299-38.935,3.299c-2.499,0-5.748-0.3-9.796-0.9c-3.099-0.25-6.048,0.15-8.896,1.1c0,0.3,0,0.65,0,1
		c0,5.499,0.05,13.094,0.15,22.84c-0.05,3.049-0.1,6.548-0.2,10.446c0.15,0.649,0.25,1.3,0.35,1.999
		c0.65,3.898,1.5,6.648,2.599,8.247c1.599,2.3,4.148,3.448,7.697,3.448c1.25,0,5.948-0.699,14.194-2.099s12.595-2.099,13.145-2.099
		c3.898,0,6.598,1.799,8.097,5.447c0.85,2.049,1.399,3.299,1.699,3.748c0.85,1.15,1.999,1.699,3.548,1.699
		c2.249,0,5.548-0.799,9.996-2.449c4.448-1.648,7.147-2.448,7.997-2.448c0.399,0,1.399,0.3,2.999,0.899c1.6,0.6,3.149,0.9,4.598,0.9
		c0.1,0,2.199-0.5,6.348-1.5c4.148-1,6.447-1.5,6.897-1.5c1.35,0,3.249,1.051,5.648,3.149c2.349,2.049,4.398,2.999,6.147,2.948
		c2.449-0.149,4.098,0.6,4.998,2.199c0.5,0.85,0.899,2.649,1.25,5.398c0.3,2.599,0.85,4.447,1.599,5.498
		c1.15,1.648,3.149,2.498,5.998,2.498c3.049,0,7.847-0.549,14.395-1.648c7.047-1.199,11.445-1.85,13.294-1.949
		c2.849-0.2,6.298-1.55,10.296-4.099c3.849-2.449,7.047-3.698,9.546-3.698c0.5,0,1.999,0.199,4.548,0.6
		c2.549,0.399,4.048,0.6,4.548,0.6c1.899,0,6.547-1.399,13.944-4.148c8.247-3.199,13.645-5.248,16.194-6.147
		c1.299-0.45,4.048-2.899,8.197-7.247c3.448-3.648,5.498-5.998,6.097-6.947c0,0,0,0-0.05-0.051c-0.3-0.249-0.6-0.549-0.899-0.85
		c-0.05-0.549-0.15-1.1-0.2-1.699c-0.35-3.299-0.899-7.946-1.549-13.895c-0.35,0.051-0.7,0.101-1.05,0.25
		C197.271,145.321,197.021,145.421,196.771,145.47L196.771,145.47z"/>
	<path fill="#CDCBCC" d="M209.516,166.462c-3.049-1.15-5.797-2.85-8.197-4.998c-0.6,0.949-2.649,3.299-6.097,6.947
		c-4.148,4.348-6.897,6.797-8.197,7.247c-2.549,0.899-7.947,2.948-16.194,6.147c-7.397,2.749-12.045,4.148-13.944,4.148
		c-0.5,0-1.999-0.2-4.548-0.6c-2.549-0.4-4.049-0.6-4.548-0.6c-2.499,0-5.698,1.249-9.546,3.697c-3.998,2.55-7.447,3.898-10.296,4.1
		c-1.849,0.1-6.247,0.749-13.294,1.949c-6.547,1.1-11.346,1.648-14.395,1.648c-2.849,0-4.848-0.85-5.998-2.498
		c-0.75-1.051-1.299-2.899-1.599-5.498c-0.35-2.749-0.75-4.549-1.25-5.398c-0.899-1.6-2.549-2.349-4.998-2.199
		c-1.75,0.051-3.798-0.899-6.147-2.948c-2.399-2.099-4.298-3.149-5.648-3.149c-0.45,0-2.749,0.5-6.897,1.5s-6.248,1.5-6.348,1.5
		c-1.449,0-2.999-0.301-4.598-0.9c-1.599-0.6-2.599-0.899-2.999-0.899c-0.85,0-3.549,0.8-7.997,2.448
		c-4.448,1.65-7.747,2.449-9.996,2.449c-1.549,0-2.699-0.549-3.548-1.699c-0.3-0.449-0.85-1.699-1.699-3.748
		c-1.5-3.648-4.199-5.447-8.097-5.447c-0.55,0-4.898,0.699-13.145,2.099s-12.945,2.099-14.194,2.099
		c-3.548,0-6.098-1.148-7.697-3.448c-1.1-1.599-1.949-4.349-2.599-8.247h-0.4c-0.35,16.094-1.149,38.885-2.299,68.322v2.449
		c1.949,0.15,5.897-0.1,11.745-0.749c5.248-0.601,8.997-0.95,11.195-1.05v-0.05c0-1.1,4.598-1.05,13.795,0.149
		c10.446,1.6,16.893,2.549,19.342,2.899c2.049,0.3,4.848,0.399,8.396,0.249c5.548-0.149,8.946-0.249,10.296-0.249
		c5.897,0.05,18.692,0.85,38.435,2.448c10.146,0.85,18.692,1.45,25.59,1.85c4.548-1.898,9.446-4.098,14.594-6.646
		c6.047-3,12.245-6.348,18.542-9.996c5.048-3,7.597-4.498,7.647-4.498c1.299,0.398,2.599,0.799,3.898,1.199
		c1.349,0.399,2.499,0.699,3.449,0.949c2.399-1.35,9.346-3.998,20.892-7.947c13.145-4.498,20.192-7.396,21.141-8.695
		c1.75-2.25,4.548-5.049,8.397-8.348c2.649-2.249,4.498-4.898,5.498-7.847c-0.25-0.749-0.6-1.449-0.95-2.099
		c-1.499-2.85-3.448-6.197-5.797-10.146C215.864,170.411,212.965,167.812,209.516,166.462L209.516,166.462z"/>
	<path fill="#999999" d="M165.584,218.492c-1.3-0.4-2.599-0.8-3.898-1.199c-0.05,0-2.599,1.498-7.647,4.498
		c-6.298,3.648-12.495,6.996-18.542,9.996c-5.148,2.549-10.046,4.748-14.594,6.646c6.197,0.35,11.045,0.5,14.544,0.5
		c11.146,0,25.69-1.399,43.633-4.198c3.049-0.499,5.998-0.95,8.846-1.3c3.849-3.498,6.797-5.897,8.747-7.146
		c1.75-1.1,4.598-3.249,8.546-6.447c4.548-3.648,7.497-6.298,8.847-7.947c1.549-1.85,4.048-4.049,7.547-6.498
		c3.449-2.348,5.898-3.697,7.347-3.998c-1.1-1.449-2.649-2.199-4.598-2.248c0.55-1.15,1-2,1.25-2.6c0.4-1.05,0.6-2.249,0.6-3.699
		c0-2.049-0.4-4.148-1.25-6.247c-1,2.948-2.849,5.599-5.498,7.847c-3.849,3.299-6.647,6.098-8.397,8.348
		c-0.949,1.299-7.997,4.197-21.141,8.695c-11.545,3.949-18.493,6.598-20.892,7.947C168.083,219.191,166.933,218.891,165.584,218.492
		L165.584,218.492z"/>
	<path fill="#CDCBCC" d="M235.806,231.686c0-0.05,1-3.099,2.949-9.246c1.45-4.499,2.349-7.597,2.799-9.247
		c-0.55-0.499-1.349-1.049-2.399-1.699c-2.249-1.35-3.548-2.248-3.948-2.698h-3.549c-0.1-0.101-0.2-0.2-0.3-0.3
		c-0.2-0.2-0.4-0.4-0.65-0.6c-0.2-0.25-0.399-0.45-0.649-0.65c-0.45-0.449-0.9-0.949-1.45-1.449h0.6l0.85,1.449l0.649-0.05
		c-0.05-1.05-0.25-2.199-0.6-3.398c-0.3-0.95-0.7-1.749-1.149-2.399c-1.449,0.301-3.898,1.65-7.347,3.998
		c-3.499,2.449-5.998,4.648-7.547,6.498c-1.35,1.649-4.298,4.299-8.847,7.947c-3.948,3.198-6.797,5.348-8.546,6.447
		c-1.949,1.249-4.898,3.648-8.747,7.146c13.544-1.949,23.991-2.949,31.337-2.949c0.9,0,2.799,0.15,5.698,0.4
		c3.199,0.25,5.598,0.55,7.247,0.8H235.806L235.806,231.686z"/>
	<path fill="#999999" d="M544.333,14.073c-2.449-1.449-4.448-2.199-6.098-2.199c-1.749,0-3.349,1.2-4.848,3.549
		c-1.65,2.599-2.85,3.998-3.549,4.248c-2.949-4.798-4.898-7.197-5.798-7.197c-2.1,0-4.648,2.399-7.697,7.197
		c-2.449,3.849-3.898,7.097-4.448,9.646l-0.25-0.55c-1.399,0.3-2.849,1.349-4.298,3.099c-1.05,1.25-1.8,2.449-2.249,3.499
		c-0.899-0.65-2.299-2.049-4.248-4.198c-1.45-1.6-2.499-2.399-3.249-2.399c-0.649,0-1.449,1.149-2.299,3.398
		c-0.75,1.949-1.1,3.249-1.1,3.798v0.6c-1.55-2-3.749-6.397-6.598-13.145c-2.049-4.898-4.099-7.347-6.048-7.347
		c-1.999,0-4.148,2.149-6.497,6.397c-2.749,4.948-3.549,10.046-2.499,15.294c-0.8-1.35-1.399-2.249-1.85-2.649
		c-0.25-0.25-0.5-0.35-0.85-0.35c-0.149,0-1.049,0.7-2.698,2.149c-1.6,1.399-2.6,2.099-2.999,2.099c-0.101,0-0.75-0.4-1.999-1.2
		c-1.25-0.85-1.949-1.249-2-1.249c-2.148,0-3.349,2.799-3.599,8.346c0.2,5.998,0.301,9.446,0.301,10.296
		c-2.149,1.45-3.349,4.398-3.699,8.896c-0.25,3.349-0.1,5.798,0.45,7.447c0.1,0,0.2,0,0.25,0v0.6c-0.101-0.2-0.2-0.4-0.25-0.6
		c-0.25-0.05-0.55-0.15-0.95-0.3c-0.6-0.2-0.999-0.3-1.249-0.3c-0.399,1.949-0.6,5.248-0.6,9.896h6.997c0.5-0.6,1.199-0.9,2.049-0.9
		c0.45,0,0.95,0.3,1.6,0.9h3.249c3.198-9.247,5.447-15.594,6.797-18.993c1.399-3.599,2.6-5.198,3.549-4.848
		c4.248,6.797,6.598,14.744,7.047,23.841h14.744c0.351-2.899,0.899-6.348,1.649-10.346c1.899-9.796,4.099-15.294,6.598-16.493
		c0,0.25,0.1,0.45,0.3,0.55c0.1,0.05,0.2,0.05,0.3,0.05c1.25,3.599,2.299,6.647,3.099,9.096c1.55,4.599,2.299,7.597,2.299,9.046
		h0.601c0.199-0.6,0.85-4.298,1.898-11.045c0.8-4.898,2.399-9.046,4.748-12.495c0.301,0.15,0.75,0.65,1.4,1.399
		c0.549,0.7,1.199,1.649,1.999,2.849c1.249,1.949,2.099,3.398,2.448,4.448l0.15,0.1c-0.15-0.7-0.75-3.099-1.799-7.147
		c-1.2-4.748-1.8-8.047-1.8-9.796c0-0.25,0.3-1.75,0.85-4.498c0.649-3.099,1.149-5.298,1.55-6.598
		c1.649,0.1,4.148,1.999,7.547,5.748c2.948,3.199,4.848,5.698,5.748,7.497c0-1.1-0.4-2.849-1.2-5.198s-1.199-3.648-1.199-3.849
		c0-0.55,0.2-1.699,0.6-3.349s0.6-2.499,0.6-2.649c0.95-0.3,1.749-0.15,2.35,0.5c1.149,1.25,1.949,1.999,2.299,2.349l0.149-0.45
		c0-0.649-0.199-2.299-0.6-4.948c-0.399-2.699-0.6-4.298-0.6-4.748c0-0.55,0.1-1.649,0.3-3.399c0.2-1.749,0.3-2.849,0.3-3.199h4.799
		L544.333,14.073L544.333,14.073z"/>
	<path fill="#999999" d="M440.923,74.549c-1.699,0-3.448,1.6-5.248,4.798c-0.249,0.55-0.499,1.049-0.699,1.5h15.644
		c-0.949-1.2-1.85-2.299-2.799-3.299C445.872,75.549,443.573,74.549,440.923,74.549L440.923,74.549z"/>
	<path fill="#999999" d="M450.82,81.146c-0.05-0.1-0.15-0.2-0.2-0.3h-15.644c-1.199,2.549-1.899,4.048-2.149,4.498
		c-1.499-1.149-2.698-1.999-3.648-2.599c-1.749-1.049-3.249-1.599-4.548-1.599c-5.048,0-8.547,0.4-10.546,1.199
		c-3.998,1.649-5.998,5.148-5.998,10.496c0,1.749,0.101,3.548,0.351,5.498c0.35,2.699,0.8,4.398,1.449,5.048v0.6
		c-0.45-0.3-1.1-1.05-1.85-2.199c-0.749-1.05-1.1-1.749-1.149-2.049c-1.3,0.4-2.399,1.7-3.349,3.849
		c-0.85,1.999-1.1,3.548-0.85,4.598c-4.648-0.4-7.497-0.6-8.497-0.6c-1.648,0-3.349,1.399-5.147,4.248
		c-1.949,3.499-3.448,5.898-4.498,7.247c-0.45,0.55-0.95,0.85-1.6,0.9c-0.75,0-1.399,0-1.85,0.05
		c-1.699,0.15-3.349,1.649-4.947,4.448c-1.649,2.849-2.649,6.048-3.049,9.546c-0.25,1.75-0.4,3.35-0.55,4.898
		c-0.65,0.9-1.649,2.799-3.099,5.648c-1.3,2.598-2.05,4.348-2.249,5.197c0.749-0.051,1.749,0,2.948,0.05
		c0.75-2.149,1.6-4.198,2.599-6.197c1.949-3.948,3.849-5.897,5.798-5.897c0.55,0,1.85,0.5,3.898,1.499
		c1.999,0.999,3.399,1.499,4.198,1.499c1.25,0,2.799-2.498,4.748-7.496c1.949-5.048,3.999-7.547,6.098-7.547
		c0.6,0,1.449,0.5,2.549,1.5c0.351,0.35,0.85,0.799,1.45,1.449c-0.15-0.25-0.2-0.4-0.2-0.45c-0.25-0.6-0.4-1.25-0.4-1.899
		c0-1.749,2.199-5.548,6.598-11.396c4.898-6.447,8.997-9.696,12.295-9.696c0.5,0,1.2,0.2,2.149,0.6c0.899,0.4,1.6,0.6,2.1,0.6
		c0.399,0,1.599-0.799,3.599-2.349c1.999-1.599,3.548-2.449,4.598-2.499c0.15,0,1.35,0.2,3.549,0.55
		c2.398,0.1,4.198-0.5,5.447-1.749h4.799c-0.051-1.699,0.05-3.449,0.3-5.198c0.6-4.298,1.899-7.147,3.898-8.597l1.199,1.2v0.649h0.5
		c0.05-0.55,0.25-1.1,0.6-1.599c0.55-0.85,1.399-1.5,2.549-2.049c0,0.2,0.101,0.7,0.3,1.5c0.101,0.35,0.2,0.7,0.25,0.95l0.05-0.05
		c0.75-3.048,1.35-4.998,1.8-5.748c0.1-0.2,0.199-0.4,0.35-0.55h-6.997C450.82,80.947,450.82,81.047,450.82,81.146L450.82,81.146z"
		/>
	<path fill="#999999" d="M496.601,83.646c0.05-0.85,0.15-1.799,0.25-2.799h-14.744c0.05,1.449,0.101,2.949,0.05,4.498
		c0.15-0.05,0.7-0.65,1.75-1.799c0.749-0.8,1.649-1.2,2.799-1.2c1.1,0,1.699,0.05,1.849,0.15c0.101,0.1,0.4,0.85,0.85,2.249
		c0.25-0.4,0.55-1,0.851-1.799c0.249-0.6,0.699-1.1,1.249-1.549c0.1-0.1,0.2-0.2,0.3-0.25v0.6c0.4,0.8,0.6,1.999,0.6,3.599
		c0.3-0.2,0.8-0.55,1.55-1.1c0.749-0.45,1.499-0.7,2.149-0.7L496.601,83.646L496.601,83.646z"/>
	<path fill="#999999" d="M464.714,80.847h-3.249c0.35,0.399,0.8,0.899,1.25,1.549c0.799,1.149,1.299,2.149,1.449,2.999v-3.049
		C464.314,81.846,464.514,81.346,464.714,80.847L464.714,80.847z"/>
	<path fill="#7B7B7B" d="M568.772,26.718c0.051-0.05,0.101-0.15,0.15-0.2c-1-1.349-1.999-2.049-2.949-2.049
		c-0.649,0.4-1.399,0.799-2.249,1.199c-1.649,0.8-3.099,1.2-4.348,1.2c-0.8-1.35-2.449-3.199-4.898-5.448
		c-2.349-2.149-4.698-3.949-7.147-5.448l-0.1,0.1c-0.35-0.25-0.699-0.5-1.05-0.75c-0.649-0.35-1.299-0.7-1.949-1.049h-4.798
		c0,0.35-0.1,1.449-0.3,3.198c-0.2,1.75-0.3,2.849-0.3,3.399c0,0.45,0.2,2.049,0.6,4.748c0.4,2.649,0.6,4.298,0.6,4.948v0.6
		c-0.05-0.05-0.1-0.1-0.149-0.15c-0.351-0.35-1.149-1.1-2.3-2.349c-0.6-0.65-1.398-0.8-2.349-0.5c0,0.15-0.2,1-0.6,2.649
		s-0.6,2.799-0.6,3.349c0,0.2,0.399,1.5,1.199,3.849s1.199,4.098,1.199,5.198c-0.899-1.799-2.799-4.298-5.747-7.497
		c-3.398-3.749-5.897-5.647-7.547-5.748c-0.4,1.3-0.9,3.499-1.55,6.598c-0.55,2.749-0.85,4.248-0.85,4.498
		c0,1.749,0.6,5.048,1.8,9.796c1.049,4.048,1.648,6.447,1.799,7.147c0,0.1,0,0.15,0,0.2v0.6c0-0.25-0.05-0.55-0.15-0.899
		c-0.35-1.05-1.199-2.499-2.448-4.448c-0.8-1.2-1.45-2.149-2-2.849c-0.649-0.75-1.099-1.249-1.399-1.399
		c-2.349,3.449-3.948,7.597-4.748,12.495c-1.049,6.747-1.699,10.446-1.898,11.046h-0.601c0-1.45-0.749-4.448-2.299-9.047
		c-0.8-2.449-1.85-5.498-3.099-9.096c-0.1,0-0.2,0-0.3-0.05c-0.2-0.1-0.3-0.3-0.3-0.55c-2.499,1.2-4.698,6.697-6.598,16.493
		c-1.05,5.398-1.649,9.796-1.899,13.145c-0.05,0.6-0.05,1.199-0.05,1.749c-0.149-0.85-0.3-1.499-0.449-1.849
		c-0.65,0-1.4,0.25-2.149,0.7c-0.75,0.55-1.25,0.899-1.55,1.1c0-1.6-0.199-2.799-0.6-3.599l-0.3-0.35c-0.55,0.45-1,0.949-1.25,1.549
		c-0.3,0.799-0.6,1.399-0.85,1.799c-0.449-1.399-0.749-2.149-0.85-2.249c-0.149-0.1-0.749-0.15-1.849-0.15
		c-1.149,0-2.05,0.4-2.799,1.2c-1.05,1.149-1.6,1.75-1.75,1.799c0.25-10.996-2.148-20.442-7.097-28.339
		c-0.95-0.35-2.149,1.25-3.549,4.848s-3.849,10.446-7.347,20.492v3.049c-0.15-0.85-0.65-1.849-1.449-2.999
		c-1.15-1.649-2.1-2.449-2.85-2.449c-1.1,0-1.898,0.5-2.398,1.45c-0.45,0.75-1.05,2.699-1.8,5.748v0.6c0-0.15,0-0.3-0.05-0.55
		s-0.149-0.6-0.25-0.95c-0.2-0.8-0.3-1.299-0.3-1.499c-1.149,0.55-1.999,1.199-2.549,2.049c-0.35,0.5-0.55,1.05-0.6,1.6
		c-0.05,0.15-0.05,0.35-0.05,0.55h135.046c0.449-4.548,0.699-7.597,0.699-9.046c0-16.244-3.398-28.389-10.195-36.536
		c-0.65-0.8-2.999-3.099-7.048-6.897c-2.148-2.049-3.198-3.898-3.198-5.598C567.173,30.067,567.723,28.667,568.772,26.718
		L568.772,26.718z"/>
	<path fill="#7B7B7B" d="M451.419,87.744l-1.199-1.2c-0.8,0.55-1.5,1.35-2.05,2.399h3.249v-0.55V87.744L451.419,87.744z"/>
	<path fill="#7B7B7B" d="M451.87,88.943c0,0.4,0.05,0.8,0.199,1.199l-0.649,0.6v-1.799h-3.249c-0.85,1.549-1.499,3.599-1.849,6.197
		c-0.25,1.75-0.351,3.499-0.3,5.198v1.199c-0.051-0.399-0.051-0.8,0-1.199h-4.799c-1.249,1.25-3.049,1.849-5.447,1.749
		c-2.199-0.35-3.398-0.55-3.549-0.55c-1.05,0.05-2.599,0.9-4.598,2.499c-2,1.549-3.199,2.349-3.599,2.349c-0.5,0-1.2-0.2-2.1-0.6
		c-0.949-0.4-1.649-0.6-2.149-0.6c-3.299,0-7.396,3.249-12.295,9.696c-4.398,5.848-6.598,9.646-6.598,11.396
		c0,0.649,0.15,1.299,0.4,1.899c0,0.05,0.05,0.2,0.2,0.45c0.35,0.35,0.749,0.799,1.199,1.25h-0.6c-0.25-0.55-0.45-1-0.6-1.25
		c-0.601-0.65-1.1-1.1-1.45-1.45c-1.1-1-1.949-1.499-2.549-1.499c-2.099,0-4.148,2.499-6.098,7.547
		c-1.949,4.998-3.498,7.496-4.748,7.496c-0.8,0-2.199-0.5-4.198-1.499c-2.049-0.999-3.349-1.499-3.898-1.499
		c-1.949,0-3.849,1.949-5.798,5.896c-0.999,2-1.849,4.049-2.599,6.198c-1.199-0.05-2.199-0.101-2.948-0.05
		c-0.051,0.15-0.051,0.25-0.051,0.35c0,1.449,0.85,2.398,2.499,2.85c1.05,0.249,3.249,0.449,6.498,0.499
		c7.196,0.149,12.994,1.05,17.393,2.749c6.197-0.65,12.445-1,18.742-1c7.747,0,20.692,1.199,38.885,3.6
		c18.143,2.398,31.188,3.598,39.135,3.598c22.69-0.799,34.536-1.199,35.535-1.199c11.546,0,18.143,0.05,19.742,0.15
		c1.949,0.149,7.747,0.898,17.394,2.248h14.994c0-4.398,1.599-18.492,4.848-42.333c1.949-14.494,3.299-25.29,4.099-32.337H451.87
		L451.87,88.943z"/>
	<path fill="#999999" d="M561.475,121.48l0.051-1.8h-19.942c-3.049,0.4-9.296,0.9-18.843,1.5c-2.148,0.15-4.198,0.25-6.147,0.35
		c-6.247,0.35-11.346,0.5-15.194,0.55c-0.499,0-0.949,0-1.398,0c-15.895-0.05-33.487-1.05-52.729-2.999
		c-0.8,1.6-1.85,3.749-3.099,6.448c-2.399,4.948-3.599,7.697-3.648,8.246c0,0.301,0.399,0.95,1.149,1.9
		c0.75,0.949,1.149,1.998,1.1,3.248c-2.549-0.1-5.148,0-7.797,0.35c-3.448,0.4-5.498,1.1-6.147,2.049
		c-2.549,3.6-3.898,9.047-4.148,16.294c0,0.45,0.05,2.3,0.15,5.647c0.1,3.35,0.149,5.498,0.1,6.398c-0.75-0.801-1.749-1.2-2.949-1.2
		c-3.148,0-6.747,0.8-10.745,2.449c-3.249,1.55-5.848,2.749-7.797,3.548c-0.55,0.25-1.1,0.45-1.55,0.6l0.15-4.197
		c-1.15-2.399-1.8-4.998-2-7.747c-0.05-0.75-0.1-2.099-0.05-3.999c0.101-2.748,0.95-7.097,2.549-13.145
		c1.55-6.047,2.399-10.896,2.55-14.594c0-0.5-0.2-1.15-0.55-1.949c-0.351-0.8-0.55-1.45-0.55-1.949
		c0.05-2.049,1.299-4.698,3.748-7.897c1.6-2.049,2.699-3.599,3.299-4.648c-15.394-1.7-26.14-2.549-32.188-2.549
		c-1.35,0.05-2.749,0.2-4.198,0.45c-0.449,0.05-0.899,0.15-1.249,0.25c-0.35,0.3-0.6,0.6-0.85,0.85c-0.351,0.399-0.7,0.799-1,1.199
		c-1.649,2.149-2.449,4.548-2.449,7.197c0,0.649,0.25,1.749,0.8,3.199c0.55,1.449,0.8,2.549,0.8,3.199
		c0,0.649-0.5,1.599-1.449,2.849c-0.75,0.95-0.8,1.699-0.15,2.349c-2.049,0.85-3.349,2.1-3.798,3.849
		c-0.3,1.149-0.3,3.099,0.05,5.747c0.85,6.748,0.25,12.096-1.85,15.994l0.101,0.05c-0.9,0.2-2.35,0.649-4.398,1.35
		c-2.899,0.999-4.448,1.499-4.599,1.499c-1.899,0-2.998,0.1-3.349,0.301c-0.949,0.5-1.699,1.998-2.199,4.498h-5.197
		c-0.05,0.25-0.05,0.449-0.05,0.649c-0.15,0.85-0.2,1.449-0.2,1.8c-1.149,0.049-2.3,0.449-3.499,1.1
		c-1.499,0.85-2.398,1.849-2.648,3.098c-0.55,0-1.949-0.5-4.299-1.449c-2.349-1-3.948-1.499-4.698-1.549
		c0,0.35-0.1,0.899-0.35,1.549c-0.25,0.65-0.35,1.199-0.35,1.75c-0.05,0.5,0.149,1.449,0.5,2.898c0.35,1.449,0.55,2.398,0.499,2.898
		c-0.05,0.95-1.648,3.898-4.798,8.747c-1.249,1.949-2.449,3.648-3.498,4.997l0.1,0.051c2.699-0.1,6.747-0.9,12.195-2.398
		c5.848-1.6,8.896-2.4,9.046-2.4c0.7,0,1.2,0.4,1.55,1.2c0.25,0.7,0.3,1.3,0.149,1.8c0.4,0,0.601-0.201,0.601-0.6
		c0.35,0.199,0.799,0.6,1.349,1.249c0.351,0.35,0.85,0.55,1.6,0.55c0.5,0,1.699-0.2,3.599-0.6c1.949-0.4,3.148-0.6,3.648-0.6
		c1.55,0,2.899,0.399,3.948,1.199c1.1,0.799,2.249,1.199,3.499,1.199c0.5,0,1.449-0.199,2.799-0.6s2.249-0.6,2.749-0.6
		c0.6,0,1.249,0.799,1.999,2.398s1.399,2.399,2.049,2.399c0.601,0,1.7-0.399,3.349-1.2c1.649-0.799,2.649-1.199,2.999-1.199
		c1.5,0,2.35,1,2.6,3.049c0.199,2,1.399,2.999,3.548,2.999c0.55,0,2.449-0.899,5.698-2.698c3.299-1.85,5.997-2.75,8.097-2.75
		c1.649,0,3.248,0.6,4.698,1.8c1.499,1.2,3.398,1.8,5.697,1.8c1.899,0,4.099-1.3,6.598-3.898c1.449-1.449,3.648-3.749,6.697-6.898
		c2.399-1.998,7.847-3.398,16.394-4.197c2.099-0.15,5.147-0.9,9.196-2.149c5.198-1.649,7.847-3.249,7.896-4.849
		c0-0.5-0.2-1.449-0.55-2.848c-0.35-1.4-0.5-2.35-0.5-2.85c0.101-2.6,1.399-3.849,3.949-3.799c0.749,0.051,1.949,0.15,3.648,0.35
		c1.599,0.15,2.948,0.101,4.048-0.149c1-3.448,4.698-5.298,11.146-5.548c4.998-0.15,7.598-0.25,7.797-0.25
		c2.85-0.3,5.048-1,6.498-2.049c1.299-0.949,2.948-1.699,4.947-2.299c1.05-0.301,2.649-0.75,4.799-1.3
		c3.648-1.2,6.197-3.999,7.547-8.396c1.649-5.349,3.698-9.196,6.098-11.546c0.899-0.899,1.849-1.6,2.849-2.049
		c2.299-1.05,6.547-2,12.694-2.749c3.35-0.85,7.947-2.449,13.795-4.898c3.249-1.35,7.997-3.299,14.194-5.897H561.475L561.475,121.48
		z"/>
	<path fill="#CDCBCC" d="M557.777,121.48c-6.197,2.599-10.945,4.548-14.194,5.897c-5.848,2.449-10.445,4.048-13.795,4.898
		c-6.147,0.749-10.396,1.699-12.694,2.749c-1,0.449-1.949,1.149-2.849,2.049c-2.399,2.35-4.448,6.197-6.098,11.545
		c-1.35,4.398-3.898,7.197-7.547,8.397c-2.149,0.55-3.749,0.999-4.799,1.3c-1.999,0.6-3.648,1.35-4.947,2.299
		c-1.45,1.049-3.648,1.749-6.498,2.049c-0.199,0-2.799,0.1-7.797,0.25c-6.447,0.25-10.146,2.1-11.146,5.548
		c-1.1,0.25-2.449,0.3-4.048,0.149c-1.699-0.199-2.899-0.299-3.648-0.35c-2.55-0.05-3.849,1.199-3.949,3.799
		c0,0.5,0.15,1.449,0.5,2.849s0.55,2.349,0.55,2.849c-0.05,1.6-2.698,3.199-7.896,4.848c-4.049,1.25-7.098,2-9.196,2.15
		c-8.547,0.799-13.994,2.199-16.394,4.197c-3.049,3.149-5.248,5.448-6.697,6.898c-2.499,2.598-4.698,3.898-6.598,3.898
		c-2.299,0-4.198-0.601-5.697-1.8c-1.45-1.2-3.049-1.8-4.698-1.8c-2.1,0-4.798,0.9-8.097,2.75c-3.249,1.799-5.148,2.698-5.698,2.698
		c-2.148,0-3.349-0.999-3.548-2.999c-0.25-2.049-1.1-3.049-2.6-3.049c-0.35,0-1.35,0.4-2.999,1.199
		c-1.648,0.801-2.748,1.2-3.349,1.2c-0.649,0-1.299-0.8-2.049-2.399s-1.399-2.398-1.999-2.398c-0.5,0-1.399,0.199-2.749,0.6
		s-2.299,0.6-2.799,0.6c-1.25,0-2.399-0.4-3.499-1.199c-1.049-0.8-2.398-1.199-3.948-1.199c-0.5,0-1.699,0.199-3.648,0.6
		c-1.899,0.399-3.099,0.6-3.599,0.6c-0.75,0-1.249-0.2-1.6-0.551c-0.55-0.648-0.999-1.049-1.349-1.248c0,0.398-0.2,0.6-0.601,0.6
		c0.15-0.5,0.101-1.1-0.149-1.8c-0.35-0.8-0.85-1.2-1.55-1.2c-0.149,0-3.198,0.801-9.046,2.4c-5.448,1.498-9.496,2.299-12.195,2.398
		c-0.05,0-0.1,0-0.149,0c-0.051,0.05-0.101,0.15-0.15,0.25c-1.649,2.049-2.999,3.398-4.099,3.948
		c-1.299,0.7-2.299,1.749-3.049,3.198c-0.55,0.95-0.949,2.1-1.249,3.398c-0.6,2.449-1.55,4.199-2.799,5.299
		c0.85-0.051,1.749-0.051,2.648,0.1c1.999,0.25,4.198,1,6.598,2.148c4.598,2.25,8.696,3.399,12.345,3.399
		c0.101,0,6.048-1.3,17.793-3.948c18.442,1.449,31.138,3.349,38.185,5.697c7.048,2.35,12.945,3.148,17.793,2.299
		c4.849-0.85,6.498-1.799,4.849-2.898s3.698-1.898,16.043-2.449c12.346-0.549,16.743-1.049,13.245-1.549
		c-3.549-0.5,4.548-1.649,24.391-3.398c15.644-1.4,24.64-2.05,27.039-2c2.599-0.6,4.798-1.749,6.597-3.498
		c1.85-1.75,1.949-3.049,0.3-3.998c7.048-11.445,13.945-17.844,20.742-19.193c0.55-0.149,1.1-0.199,1.649-0.25
		c7.347-0.648,12.694-0.749,16.043-0.35c3.399,0.4,5.349,0.6,5.848,0.6c4.049,0,8.097-1.398,12.146-4.248
		c1.85-1.35,3.099-2.199,3.698-2.599c0.65-6.497,1.8-12.646,3.399-18.493l1.049-33.736H557.777L557.777,121.48z"/>
	<path fill="#999999" d="M535.335,179.957c-3.349-0.399-8.696-0.3-16.043,0.35c-0.55,0.051-1.1,0.101-1.649,0.25
		c-6.798,1.35-13.694,7.748-20.742,19.193c1.649,0.949,1.55,2.248-0.3,3.998c-1.799,1.749-3.998,2.898-6.597,3.498
		c0.649,0,0.799,0.051,0.499,0.15c-0.499,0.199-0.649,0.15-0.499-0.15c-2.399-0.05-11.396,0.6-27.04,2
		c-19.842,1.748-27.938,2.898-24.39,3.398c3.498,0.5-0.899,1-13.245,1.549c-12.345,0.551-17.692,1.35-16.043,2.449
		s0,2.049-4.849,2.898c-4.848,0.85-10.745,0.051-17.793-2.299c-7.047-2.35-19.742-4.248-38.185-5.697
		c-11.745,2.648-17.692,3.948-17.793,3.948c-3.648,0-7.747-1.149-12.345-3.399c-2.399-1.148-4.599-1.898-6.598-2.148
		c-0.899-0.15-1.799-0.15-2.648-0.1c-0.15,0.149-0.25,0.25-0.4,0.35c-0.25,0.15-0.449,0.25-0.699,0.4
		c-2.399,1.199-4.099,4.748-5.148,10.645c-0.5,2.949-0.8,5.848-0.85,8.646c-9.546,1.9-15.094,3.199-16.693,3.898
		c-2.749,1.25-4.848,3.199-6.247,5.898c-0.25,0.449-0.5,0.949-0.7,1.449c4.748,1.649,10.946,3.049,18.493,4.248
		c8.746,1.35,16.644,2.049,23.79,2.049c23.141,0,44.482-1.498,63.975-4.447c14.044-2.1,28.839-5.348,44.433-9.696
		c5.697-1.6,12.845-3.599,21.441-5.997c4.098-1.15,8.546-2.4,13.294-3.749c12.346-2.948,23.94-4.448,34.887-4.448
		c9.246,0,19.642,0.799,31.137,2.398c4.849,0.65,9.347,1.4,13.495,2.199c3.349,0.65,6.497,1.3,9.446,2h7.896l0.101-3.6
		c-0.051-0.399-0.15-1.398-0.351-3.049c-0.449-2.598-1.149-6.746-2.099-12.494c-1.449-8.247-2.1-15.943-1.85-23.091
		c0-2.249,0.15-5.147,0.5-8.597c0.05-0.4,0.05-0.8,0.1-1.149c-0.6,0.399-1.849,1.249-3.698,2.599
		c-4.049,2.85-8.097,4.248-12.146,4.248C540.684,180.556,538.735,180.357,535.335,179.957L535.335,179.957z"/>
	<path fill="#CDCBCC" d="M444.172,125.528c1.249-2.699,2.299-4.848,3.099-6.447c-5.298-0.55-10.695-1.199-16.243-1.849
		c-7.348-0.9-14.045-1.649-19.992-2.299c-0.6,1.05-1.699,2.599-3.299,4.648c-2.449,3.199-3.698,5.848-3.748,7.896
		c0,0.5,0.199,1.15,0.55,1.949c0.35,0.8,0.55,1.45,0.55,1.949c-0.15,3.699-1,8.547-2.55,14.594
		c-1.599,6.048-2.448,10.396-2.549,13.145c-0.05,1.899,0,3.249,0.05,3.998c0.2,2.75,0.85,5.349,2,7.748l-0.15,4.197l0.649-0.6h0.9
		c1.949-0.799,4.548-1.998,7.797-3.549c3.998-1.648,7.597-2.448,10.745-2.448c1.2,0,2.199,0.399,2.949,1.2
		c0.05-0.9,0-3.049-0.1-6.398c-0.101-3.348-0.15-5.197-0.15-5.647c0.25-7.247,1.6-12.694,4.148-16.294
		c0.649-0.949,2.699-1.648,6.147-2.049c2.648-0.35,5.248-0.449,7.797-0.35c0.05-1.25-0.35-2.299-1.1-3.249s-1.149-1.599-1.149-1.899
		C440.574,133.226,441.773,130.477,444.172,125.528L444.172,125.528z"/>
	<path fill="#CDCBCC" d="M371.551,115.133c0.3-0.4,0.649-0.8,1-1.2c0.25-0.25,0.5-0.55,0.85-0.85c-1.55,0.3-2.749,0.7-3.599,1.15
		c-0.05,0.05-0.05,0.05-0.101,0.1l-0.1-0.15c-0.649-0.25-1.199-0.4-1.649-0.5c-0.449-0.05-1.35-0.1-2.749-0.1
		c-2.049,0-3.198,0.35-3.448,1c-0.3,0.899-0.7,1.799-1.25,2.649s-1.249,1.649-2.099,2.449c-1.399,2.049-2.449,3.549-3.148,4.499
		c-1.25,1.649-2.649,2.149-4.299,1.5c-0.6,2.099-1.949,9.545-4.099,22.34c-1.549,9.447-2.549,15.844-2.998,19.193h5.197
		c0.5-2.5,1.25-3.999,2.199-4.498c0.351-0.201,1.449-0.301,3.349-0.301c0.15,0,1.699-0.5,4.599-1.499
		c2.049-0.7,3.498-1.149,4.398-1.35l-0.101-0.05c2.1-3.898,2.699-9.246,1.85-15.994c-0.35-2.648-0.35-4.598-0.05-5.747
		c0.449-1.749,1.749-2.999,3.798-3.849c-0.649-0.65-0.6-1.399,0.15-2.349c0.949-1.25,1.449-2.199,1.449-2.849
		c0-0.65-0.25-1.75-0.8-3.199c-0.55-1.45-0.8-2.549-0.8-3.199C369.102,119.681,369.902,117.282,371.551,115.133L371.551,115.133z"/>
	<path fill="#CDCBCC" d="M554.428,131.076c0.2,0,0.399,0,0.649,0l1.6-10.695c-1.149-0.05-2.299-0.15-3.448-0.2
		c-194.973-10.446-388.795-10.646-581.468-0.5c-0.4,0-0.799,0-1.199,0.05v11.445c0.4-0.05,0.799-0.05,1.199-0.05
		C163.635,120.131,357.857,120.131,554.428,131.076L554.428,131.076z"/>
	<path fill="#999999" d="M553.229,120.181v-5.348c-11.246-0.45-22.541-0.85-33.787-1.25c-183.976-6.448-366.503-5.998-547.681,1.349
		v4.748C164.434,109.535,358.256,109.735,553.229,120.181L553.229,120.181z"/>
	<path fill="#6A6A6A" d="M554.428,137.024v-3.898c-187.125-9.146-377.299-9.646-570.472-1.599c-4.048,0.15-8.147,0.35-12.195,0.55
		v5.048c33.937-2.199,67.973-3.999,102.009-5.448C232.907,124.929,393.143,126.728,554.428,137.024L554.428,137.024z"/>
	<path fill="#999999" d="M554.428,133.125v-2.049c-196.571-10.945-390.793-10.945-582.667,0.05v0.95
		c4.048-0.2,8.147-0.4,12.195-0.55C177.129,123.479,367.303,123.979,554.428,133.125L554.428,133.125z"/>
	<path fill="#CDCBCC" d="M151.489,24.869c-0.549-0.4-1.199-0.9-1.949-1.5c-0.85-0.65-1.449-1.2-1.799-1.6
		c-38.185,52.729-88.515,83.567-151.04,92.463c0.2,0.1,0.399,0.2,0.649,0.3c1.849,0.85,3.049,1.349,3.499,1.599
		c0.25,0.15,0.5,0.25,0.8,0.4C63.575,107.536,113.505,76.998,151.489,24.869L151.489,24.869z"/>
	<path fill="#CDCBCC" d="M131.947,23.22c-0.85-0.65-1.449-1.2-1.799-1.6c-38.185,52.729-88.515,83.566-151.04,92.463
		c0.2,0.1,0.4,0.2,0.65,0.3c1.849,0.85,3.049,1.35,3.499,1.6c0.25,0.15,0.5,0.25,0.8,0.4c61.925-8.997,111.855-39.534,149.84-91.664
		C133.347,24.319,132.697,23.819,131.947,23.22L131.947,23.22z"/>
	<path fill="#CDCBCC" d="M405.188,25.119c-0.35,0.4-0.949,0.95-1.799,1.6c-0.75,0.6-1.4,1.1-1.949,1.5
		c37.984,52.129,87.914,82.667,149.84,91.663c0.3-0.15,0.55-0.25,0.8-0.4c0.449-0.25,1.649-0.75,3.498-1.599
		c0.25-0.1,0.45-0.2,0.649-0.3C493.703,108.686,443.373,77.848,405.188,25.119L405.188,25.119z"/>
	<path fill="#CDCBCC" d="M422.781,24.969c-0.35,0.4-0.949,0.95-1.799,1.6c-0.75,0.6-1.399,1.1-1.949,1.499
		c37.984,52.129,87.915,82.667,149.84,91.664c0.3-0.15,0.55-0.25,0.8-0.4c0.449-0.25,1.649-0.75,3.498-1.6
		c0.25-0.1,0.45-0.2,0.65-0.3C511.295,108.535,460.965,77.698,422.781,24.969L422.781,24.969z"/>
	<path fill="#CDCBCC" d="M168.283,10.275c-6.248-0.45-10.696-0.7-13.444-0.8l-7.097-0.05v0.05c-1.2,0.1-2.349,0.2-3.449,0.25
		c0.05,0.45,0.2,0.95,0.4,1.5c0.15,0.45,0.2,1.049,0.2,1.799l2.299-0.2c-0.25,0.95-0.3,2.949-0.2,6.098
		c0.05,3.148,0.05,5.098,0.05,5.897l-0.45,7.047c-0.1,0.8-0.899,8.296-2.349,22.491c-1.649,16.344-2.599,29.888-2.849,40.634
		c-0.15,5.598-0.3,9.996-0.4,13.195c-0.1,2.899-0.15,4.798-0.2,5.748c-0.1,1.899-0.2,4.798-0.25,8.646l-0.05,2
		c0.5-0.15,1.4-0.4,2.749-0.65c3.049-0.65,5.698-1.25,7.947-1.849s3.749-1,4.398-1.25c-0.05-1.549-0.05-2.999-0.1-4.348l-0.25,0.05
		c-0.05,0-0.1,0-0.15,0l-0.15,0.15c-0.05-0.05-0.1-0.15-0.1-0.2v-0.05c0,0,0,0-0.05-0.05c0-0.05,0.05-0.1,0.1-0.15h-0.05
		c0-0.15,0-0.3,0.05-0.45h-0.05v-0.399c0-0.05,0-0.1,0.05-0.15c-0.05-0.05-0.05-0.149-0.05-0.2c0-0.05,0.05-0.15,0.1-0.25
		c0-0.05,0-0.05,0-0.1c0-0.05,0-0.149,0-0.25c0-0.05,0-0.05,0.05-0.05c-0.05-0.05-0.05-0.15-0.05-0.2c0-1.1,0.05-1.799,0.1-2.099
		c0.05-0.35,0.05-0.95,0.05-1.899c-0.05-0.949-0.05-4.798,0-11.445c0.05-6.647,0.05-10.846,0.1-12.595
		c0.05-1.75,0.1-2.849,0.25-3.299c0.15-0.55,0.4-1,0.8-1.449c0.399-0.45,0.799-0.85,1.25-1.1c0.399-0.3,1.049-0.65,1.999-1.1
		c0.899-0.4,1.899-0.7,2.999-0.85c1.75-0.25,3.149-0.25,4.099-0.1s1.799,0.5,2.549,1.149c0.25,0.15,0.4,0.3,0.55,0.4l0.4,3.148
		c0.3,5.048,0.55,10.196,0.8,15.544c0.15,3.749,0.25,6.498,0.25,8.347l0.05,4.099c0.05,0.35,0.1,0.7,0.15,0.949
		c-0.05,0.1-0.05,0.25,0,0.45c0,0.05,0,0.1,0.05,0.15h-0.2c-0.05,0-0.05,0-0.1,0.05h-0.15l-1.2,0.3c-0.35,0.2,0.35,0.2,2.1,0.05
		c0.05,0.6,0.05,1.149,0.1,1.649c0.05,1.549,0.1,2.349,0.15,2.399c0.35,0.2,0.5,0.35,0.4,0.4c2.149-0.45,4.598-1,7.347-1.75
		c2.649-0.65,4.249-1.1,4.698-1.449c-0.15-2.049-0.25-4.048-0.35-5.948c-0.899-14.145-1.699-24.64-2.349-31.438
		c-1.649-17.693-3.848-32.437-6.697-44.282c0-0.1,0-0.2-0.05-0.3c0-0.05,0-0.1-0.05-0.25c0.05-0.05,0.05-0.2,0.05-0.45
		c-0.05-0.15-0.05-0.25-0.05-0.4c0-2.449-0.1-8.197-0.35-17.193c2.049,0.3,3.249,0.45,3.699,0.4c0.45-0.05,0.649-0.3,0.649-0.85
		l0.1-2.399C178.079,10.975,174.48,10.725,168.283,10.275L168.283,10.275z M169.582,20.371h1.85l-0.15,5.298l-0.05,0.1
		c-0.05,0.15-1.049,0.05-2.949-0.3c0-0.05,0-0.05,0-0.1l-11.045,0.15c0-0.05,0-0.15,0-0.2c-2.249,0.1-3.449,0.15-3.499,0.15
		c-0.55,0.05-1.1,0.1-1.649,0.15c-0.6,0.05-1.2,0.05-1.85,0.1c-0.25-0.6-0.15-2.549,0.2-5.798l8.197,0.1v0.05
		c2.849,0.05,6.197,0.05,9.996,0.1C169.032,20.121,169.333,20.221,169.582,20.371L169.582,20.371z M164.634,41.412
		c0.75,1.2,1.549,3.349,2.399,6.498c1.2,4.748,2.049,11.445,2.549,20.192l0.05,0.05c-1.1,0.15-2.249,0.3-3.499,0.5l-1.549,0.25
		c-0.1,0-0.2,0-0.3,0.05c-1.949,0.35-4.948,1-8.996,1.899v-0.15l-0.1-0.25c-0.15-1.6-0.2-4.348-0.05-8.197
		c0.15-5.448,0.45-9.596,1-12.545c0.95-5.398,2.599-8.646,4.898-9.696l0.55-0.1c0-0.05,0.05-0.05,0.1-0.05
		c0.25-0.05,0.799,0.05,1.749,0.4C163.834,40.413,164.234,40.763,164.634,41.412L164.634,41.412z M154.538,70.851h-0.05
		c-0.05-0.15-0.05-0.25-0.05-0.4L154.538,70.851L154.538,70.851z"/>
	<path fill="#999999" d="M171.432,20.371h-1.85c-0.25-0.15-0.549-0.25-0.949-0.2c-3.799-0.05-7.147-0.05-9.996-0.1v-0.05l-8.197-0.1
		c-0.35,3.249-0.45,5.198-0.2,5.798c0.65-0.05,1.25-0.05,1.85-0.1c0.55-0.05,1.1-0.1,1.649-0.15c0.05,0,1.25-0.05,3.499-0.15
		c0,0.05,0,0.15,0,0.2l11.045-0.15c0,0.05,0,0.05,0,0.1c1.899,0.35,2.899,0.45,2.949,0.3l0.05-0.1L171.432,20.371L171.432,20.371z"
		/>
	<path fill="#7B7B7B" d="M167.033,47.91c-0.85-3.149-1.649-5.298-2.399-6.498c-0.4-0.649-0.8-1-1.2-1.149
		c-0.95-0.35-1.5-0.45-1.749-0.4c-0.05,0-0.1,0-0.1,0.05l-0.55,0.1c-2.299,1.05-3.948,4.298-4.898,9.696
		c-0.55,2.949-0.85,7.097-1,12.545c-0.15,3.849-0.1,6.597,0.05,8.197l0.1,0.25v0.15c4.048-0.9,7.047-1.549,8.996-1.899
		c0.1-0.05,0.2-0.05,0.3-0.05l1.549-0.25c1.25-0.25,2.399-0.4,3.448-0.55C169.083,59.355,168.233,52.658,167.033,47.91
		L167.033,47.91z"/>
	<path fill="#999999" d="M154.488,70.851h0.05l-0.1-0.4C154.438,70.601,154.438,70.701,154.488,70.851L154.488,70.851z"/>
	<path fill="#999999" d="M124.5,14.223c0.75-0.15,1.799-0.15,3.148,0.05c-0.15,0.15-0.4,2.349-0.7,6.698
		c-0.3,4.348-0.55,7.597-0.8,9.796c-1.649,11.895-3.048,21.091-4.098,27.539c-1.05,6.447-2.049,13.594-2.949,21.391
		c-0.95,7.747-1.549,12.845-1.899,15.244c-0.35,2.299-0.6,4.698-0.75,7.197c-0.2,2.35-0.35,4.349-0.5,6.048
		c-0.05,0.15-0.05,0.25-0.05,0.4c-0.15,1.75-0.5,4.748-0.95,8.896c4.848,1.5,7.397,2.249,7.547,2.299c1.149,0.55,2.449,0.85,3.898,1
		c-0.1-1.349-0.15-2.149-0.1-2.299c0.3-4.048,0.55-7.447,0.8-10.296c0.25-3.648,0.45-6.248,0.6-7.847
		c0.35-4.448,0.899-7.347,1.549-8.697c0.949,0.85,1.349,3.898,1.199,9.046c-0.05,1.949-0.15,4.448-0.35,7.497
		c-0.05,1.5-0.15,3.149-0.3,4.898c-0.05,2.249-0.05,3.749,0.05,4.598c0.15,0.85,0.15,2.249,0.05,4.249c0.1,0,0.2,0,0.35,0.05
		c1.599,0.35,3.898,1,6.947,2c1.299,0.45,2.249,0.75,2.799,0.899c0.2,0.05,0.35,0.1,0.45,0.1l0.05-0.4l0.05-1.999
		c0.05-3.849,0.15-6.748,0.25-8.647c0.05-0.95,0.1-2.849,0.2-5.748c0.1-3.199,0.25-7.597,0.4-13.195
		c0.25-10.746,1.2-24.29,2.849-40.633c1.45-14.194,2.25-21.691,2.349-22.491l0.45-7.047c0-0.799,0-2.749-0.05-5.897
		c-0.1-3.149-0.05-5.148,0.2-6.098l-2.299,0.2c0-0.75-0.05-1.349-0.2-1.799c-0.2-0.55-0.35-1.05-0.4-1.5
		c-13.745,1-20.942,1.5-21.591,1.549l0.4,3.299C123.301,14.423,123.75,14.323,124.5,14.223L124.5,14.223z M130.448,20.471
		c-0.4,0,0.55-0.1,2.899-0.25c0.45-0.05,0.85-0.05,1.299-0.1c1.85-0.15,4.749-0.3,8.647-0.45c0.2,4.298,0.35,6.747,0.399,7.297
		c0.05,0.6-0.85,0.8-2.799,0.55c-1.949-0.25-3.249-0.35-3.998-0.2c-0.75,0.15-1.35,0.2-1.75,0.05c-0.15-0.05-0.45-0.05-0.899,0
		c-0.65,0-1.75-0.1-3.199-0.25c-0.15-1.05-0.3-1.899-0.45-2.549c-0.15-0.7-0.2-1.25-0.25-1.699L130.448,20.471L130.448,20.471z
		 M132.197,57.956c0-0.05,0-0.05,0-0.1c0.25-0.7,0.5-0.799,0.75-0.3c0.3,0.6,0.2,3.599-0.25,8.946
		c-0.45,5.348-0.75,9.746-0.85,13.295c-0.15,3.849-0.15,6.098,0,6.697l-2.399-0.05l0.05-1.799c0-0.05,0.35-4.548,1.049-13.495
		c0.5-6.348,1-10.546,1.449-12.645c0.05-0.15,0.05-0.25,0.1-0.4c0-0.05,0-0.05,0.05-0.05v-0.05
		C132.147,57.956,132.147,57.956,132.197,57.956L132.197,57.956z"/>
	<path fill="#7B7B7B" d="M133.347,20.221c-2.349,0.15-3.299,0.25-2.899,0.25l-0.1,2.399c0.05,0.45,0.1,1,0.25,1.699
		c0.15,0.65,0.3,1.5,0.45,2.549c1.449,0.15,2.549,0.25,3.199,0.25c0.45-0.05,0.75-0.05,0.899,0c0.4,0.15,1,0.1,1.75-0.05
		c0.75-0.15,2.049-0.05,3.998,0.2c1.949,0.25,2.849,0.05,2.799-0.55c-0.05-0.55-0.2-2.999-0.399-7.297
		c-3.898,0.15-6.797,0.3-8.647,0.45C134.196,20.171,133.796,20.171,133.347,20.221L133.347,20.221z"/>
	<path fill="#7B7B7B" d="M132.197,57.956c-0.05,0-0.05,0-0.05,0.05v0.05c-0.05,0-0.05,0-0.05,0.05v0.05l-0.05,0.2v0.15
		c-0.05,0-0.05,0-0.05,0.05v-0.05c-0.45,2.099-0.949,6.297-1.449,12.645c-0.7,8.946-1.05,13.444-1.05,13.495l-0.05,1.799l2.399,0.05
		c-0.15-0.6-0.15-2.849,0-6.697c0.1-3.549,0.4-7.947,0.85-13.295c0.45-5.348,0.55-8.347,0.25-8.946c-0.25-0.5-0.5-0.4-0.75,0.3v0.05
		V57.956L132.197,57.956z"/>
	<path fill="#7B7B7B" d="M156.238,81.396c-0.4,0.45-0.65,0.899-0.8,1.449c-0.15,0.45-0.2,1.549-0.25,3.299
		c-0.05,1.749-0.05,5.947-0.1,12.595c-0.05,6.647-0.05,10.496,0,11.445c0,0.95,0,1.55-0.05,1.899c-0.05,0.3-0.1,1-0.1,2.099
		c0,0.05,0,0.15,0.05,0.2c-0.05,0-0.05,0-0.05,0.05c0,0.1,0,0.2,0,0.25c0,0.05,0,0.05,0,0.1c-0.05,0.1-0.1,0.2-0.1,0.25
		c0,0.05,0,0.15,0.05,0.2c-0.05,0.05-0.05,0.1-0.05,0.15v0.399h0.05c-0.05,0.15-0.05,0.3-0.05,0.45h0.05
		c-0.05,0.05-0.1,0.1-0.1,0.15c0.05,0.05,0.05,0.05,0.05,0.05v0.05c0,0.05,0.05,0.15,0.1,0.2l0.15-0.15l0.4-0.05l14.244-3.649
		l1.2-0.3h0.15c0.05-0.05,0.05-0.05,0.1-0.05h0.2c-0.05-0.05-0.05-0.1-0.05-0.15c-0.05-0.2-0.05-0.35,0-0.45
		c-0.05-0.25-0.1-0.6-0.15-0.949l-0.05-4.099c0-1.849-0.1-4.598-0.25-8.347c-0.25-5.348-0.5-10.496-0.8-15.543l-0.4-3.149
		c-0.15-0.1-0.3-0.25-0.55-0.4c-0.75-0.65-1.599-1-2.549-1.149s-2.349-0.15-4.099,0.1c-1.099,0.15-2.099,0.45-2.999,0.85
		c-0.95,0.45-1.6,0.8-1.999,1.1C157.037,80.546,156.637,80.946,156.238,81.396L156.238,81.396z"/>
	<path fill="#6A6A6A" d="M155.088,116.532c0.05,0,0.1,0,0.15,0l0.25-0.05L155.088,116.532L155.088,116.532z"/>
	<path fill="#7B7B7B" d="M130.098,108.186c0.2-3.049,0.3-5.548,0.35-7.497c0.15-5.148-0.25-8.197-1.199-9.046
		c-0.65,1.35-1.2,4.249-1.549,8.697c-0.15,1.599-0.35,4.198-0.6,7.847c-0.25,2.849-0.5,6.248-0.799,10.296
		c-0.05,0.15,0,0.95,0.1,2.299c0.85,0.55,1.899,0.9,3.049,1.1c0.05,0,0.05,0,0.1,0c0.1,0,0.2,0,0.35,0.05
		c0.1-2,0.1-3.399-0.05-4.249c-0.1-0.85-0.1-2.349-0.05-4.598C129.948,111.334,130.048,109.685,130.098,108.186L130.098,108.186z"/>
	<path fill="#CDCBCC" d="M401.889,9.725v-0.05l-7.097,0.05c-2.749,0.1-7.197,0.35-13.445,0.799c-6.197,0.45-9.796,0.7-10.846,0.75
		l0.101,2.399c0,0.55,0.199,0.8,0.649,0.85c0.45,0.05,1.649-0.1,3.698-0.4c-0.25,8.997-0.35,14.744-0.35,17.193
		c0,0.15,0,0.25-0.05,0.4c0,0.25,0,0.4,0.05,0.45c-0.05,0.15-0.05,0.2-0.05,0.25c-0.05,0.1-0.05,0.2-0.05,0.3
		c-1.899,7.947-3.549,17.243-4.898,27.839c-0.649,5.148-1.249,10.646-1.799,16.443c-0.65,6.747-1.45,17.143-2.3,31.188
		c-0.149,1.999-0.249,4.048-0.399,6.197l-0.05,0.25l27.289,6.797c3.549,0.85,5.697,1.399,6.348,1.649
		c0.649,0.25,4.098,0.9,10.396,1.949v-2.199c-0.05-3.848-0.15-6.747-0.25-8.646c-0.05-0.95-0.1-2.949-0.2-5.998
		c-0.1-3.148-0.25-7.497-0.399-12.945c-0.25-10.746-1.199-24.291-2.849-40.634c-1.45-14.194-2.249-21.691-2.35-22.491l-0.449-7.047
		c0-0.8,0-2.749,0.05-5.898c0.1-3.148,0.05-5.147-0.2-6.097l2.999,0.25c0.05-0.399,0.05-1.499-0.05-3.349
		C404.239,9.925,403.088,9.825,401.889,9.725L401.889,9.725z M399.34,25.968c-0.6-0.05-1.199-0.05-1.799-0.1
		c-0.551-0.05-1.1-0.1-1.649-0.15c-0.15-0.05-1.3-0.05-3.499,0v0.05h-11.346c-1.699,0.3-2.599,0.4-2.648,0.25l-0.05-0.1l-0.15-5.298
		l2.949-0.05v0.1c0.05-0.05,0.149-0.05,0.249-0.05c3.749-0.15,7.197-0.3,10.246-0.35l7.447,0.05
		C399.541,23.47,399.59,25.369,399.34,25.968L399.34,25.968z M385.496,63.403c-1.249,4.249-1.849,8.997-1.799,14.194
		c0.05,5.148,0.749,9.446,2.099,12.895s2.949,5.398,4.698,5.897c1.749,0.5,3.349,0.05,4.748-1.299
		c1.35-1.399,2.549-2.899,3.499-4.448c0.399,1.149,1.05,3.249,1.999,6.297s1.499,4.898,1.749,5.498
		c0.25,0.6-0.999,2.299-3.648,5.098c-0.25,0.25-0.449,0.45-0.649,0.65c-2.549,2.249-5.598,3.099-9.196,2.499
		c-1.649-0.3-3.199-1.149-4.648-2.499c-1.999-1.899-3.748-4.798-5.298-8.747c-2.699-6.797-4.099-14.194-4.148-22.191
		c-0.05-7.997,1.25-15.744,3.948-23.241c2.649-7.497,5.898-11.996,9.746-13.445c3.849-1.5,6.848-1.35,9.097,0.45
		s3.698,4.298,4.398,7.547c-0.35,1.049-1.35,2.799-2.999,5.198s-2.699,4.048-3.198,4.998c-0.101-1.25-0.65-2.399-1.649-3.449
		c-1-1.05-2.399-1.05-4.148,0.05C388.294,56.456,386.746,59.155,385.496,63.403L385.496,63.403z"/>
	<path fill="#999999" d="M397.542,25.869c0.6,0.05,1.199,0.05,1.799,0.1c0.25-0.6,0.2-2.499-0.25-5.647l-7.447-0.05
		c-3.049,0.05-6.497,0.2-10.246,0.35c-0.1,0-0.199,0-0.249,0.05v-0.1l-2.949,0.05l0.15,5.298l0.05,0.1
		c0.05,0.15,0.949,0.05,2.648-0.25h11.346v-0.05c2.199-0.05,3.349-0.05,3.499,0C396.442,25.769,396.991,25.818,397.542,25.869
		L397.542,25.869z"/>
	<path fill="#7B7B7B" d="M383.697,77.598c-0.05-5.198,0.55-9.946,1.799-14.194c1.25-4.248,2.799-6.947,4.599-8.047
		c1.749-1.099,3.148-1.099,4.148-0.05c0.999,1.05,1.549,2.199,1.649,3.449c0.499-0.95,1.549-2.599,3.198-4.998
		s2.649-4.148,2.999-5.198c-0.7-3.249-2.149-5.748-4.398-7.547c-2.249-1.799-5.248-1.949-9.097-0.45
		c-3.848,1.45-7.097,5.948-9.746,13.445c-2.698,7.497-3.998,15.244-3.948,23.241c0.05,7.997,1.449,15.394,4.148,22.191
		c1.55,3.949,3.299,6.847,5.298,8.747c1.449,1.35,2.999,2.199,4.648,2.499c3.599,0.6,6.647-0.25,9.196-2.499
		c0.2-0.2,0.399-0.4,0.649-0.649c2.649-2.799,3.898-4.499,3.648-5.098c-0.25-0.6-0.8-2.449-1.749-5.498
		c-0.949-3.048-1.6-5.148-1.999-6.297c-0.95,1.549-2.149,3.049-3.499,4.448c-1.399,1.35-2.999,1.799-4.748,1.3
		c-1.749-0.5-3.349-2.449-4.698-5.898S383.747,82.746,383.697,77.598L383.697,77.598z"/>
	<path fill="#999999" d="M402.439,13.074c0.25,0.95,0.3,2.949,0.2,6.097c-0.05,3.149-0.05,5.098-0.05,5.898l0.449,7.047
		c0.101,0.799,0.899,8.296,2.35,22.491c1.649,16.343,2.599,29.888,2.849,40.634c0.149,5.448,0.3,9.796,0.399,12.945
		c0.101,3.049,0.15,5.048,0.2,5.998c0.1,1.899,0.2,4.798,0.25,8.646v2.199c0.15-0.05,0.35-0.1,0.5-0.1l2.499-0.8
		c1.05-0.3,2.349-0.649,3.798-1c2.449-0.649,3.749-0.95,3.849-0.95c0-0.05,0-0.05,0.05-0.05c0.051-0.5,0.101-1.5,0.051-2.999
		c-0.051-1.649-0.15-4.348-0.301-8.196c-0.05-0.9-0.05-1.799-0.1-2.749c-0.149-2.949-0.3-5.948-0.35-8.997
		c-0.1-3.999,0.35-6.447,1.3-7.297c0.649,1.35,1.149,3.798,1.449,7.397c0.199,2.699,0.399,5.648,0.6,8.896
		c0.05,1.1,0.149,2.249,0.2,3.398c0.3,4.548,0.499,7.797,0.6,9.646c3.849-1.25,5.598-1.75,5.147-1.55
		c-0.449,0.15,1.649-0.5,6.298-1.949c-0.45-4.148-0.8-7.147-0.949-8.896c0-0.2,0-0.4-0.051-0.65c-0.149-1.649-0.3-3.599-0.5-5.798
		c-0.149-2.499-0.399-4.898-0.749-7.197c-0.35-2.399-0.95-7.497-1.899-15.244c-0.899-7.797-1.899-14.944-2.949-21.391
		c-0.85-5.298-1.949-12.445-3.198-21.392c-0.3-1.949-0.6-3.999-0.899-6.147c-0.2-1.949-0.45-4.748-0.7-8.347
		c-0.05-0.45-0.05-0.95-0.1-1.45c-0.3-4.348-0.55-6.547-0.7-6.697c0.25-0.05,0.55-0.05,0.8-0.1c1-0.1,1.8-0.1,2.35,0.05
		c0.749,0.1,1.199,0.2,1.399,0.35l0.399-3.298c-0.25,0-1.649-0.1-4.148-0.25c-3.549-0.25-9.346-0.7-17.393-1.3
		c0.1,1.85,0.1,2.949,0.05,3.349L402.439,13.074L402.439,13.074z M414.984,20.371c0.45,0.05,0.85,0.05,1.3,0.1
		c2.349,0.15,3.299,0.25,2.898,0.25l0.101,2.399c-0.051,0.45-0.101,1-0.25,1.699c-0.15,0.65-0.3,1.5-0.45,2.549
		c-1.449,0.15-2.549,0.25-3.198,0.25c-0.45-0.05-0.75-0.05-0.9,0c-0.399,0.15-0.999,0.1-1.749-0.05s-2.049-0.05-3.998,0.2
		s-2.85,0.05-2.799-0.55c0.05-0.55,0.199-2.999,0.399-7.297C410.236,20.071,413.135,20.221,414.984,20.371L414.984,20.371z
		 M417.533,58.355c0.05,0.15,0.05,0.25,0.101,0.4c0.449,2.099,0.949,6.297,1.449,12.645c0.699,8.946,1.05,13.444,1.05,13.495
		l0.05,1.799l-2.399,0.05c0.15-0.6,0.15-2.849,0-6.697c-0.1-3.549-0.399-7.947-0.85-13.295c-0.449-5.348-0.55-8.347-0.25-8.946
		c0.15-0.4,0.351-0.4,0.6,0c0.051,0.1,0.15,0.25,0.2,0.4v0.1C417.533,58.306,417.533,58.306,417.533,58.355L417.533,58.355z"/>
	<path fill="#7B7B7B" d="M416.284,20.471c-0.45-0.05-0.85-0.05-1.3-0.1c-1.849-0.15-4.748-0.3-8.646-0.45
		c-0.2,4.298-0.35,6.747-0.399,7.297c-0.051,0.6,0.85,0.8,2.799,0.55s3.248-0.35,3.998-0.2s1.35,0.2,1.749,0.05
		c0.15-0.05,0.45-0.05,0.9,0c0.649,0,1.749-0.1,3.198-0.25c0.15-1.05,0.3-1.899,0.45-2.549c0.149-0.7,0.199-1.25,0.25-1.699
		l-0.101-2.399C419.583,20.721,418.632,20.621,416.284,20.471L416.284,20.471z"/>
	<path fill="#7B7B7B" d="M417.583,58.755v-0.15l-0.05-0.2v-0.05c0-0.05,0-0.05-0.05-0.05v-0.1c-0.05-0.15-0.149-0.3-0.2-0.4
		c-0.249-0.4-0.449-0.4-0.6,0c-0.3,0.6-0.2,3.599,0.25,8.946c0.45,5.348,0.75,9.746,0.85,13.295c0.15,3.849,0.15,6.098,0,6.697
		l2.399-0.05l-0.05-1.799c0-0.05-0.351-4.548-1.05-13.495c-0.5-6.348-1-10.546-1.449-12.645v0.05
		C417.633,58.755,417.633,58.755,417.583,58.755L417.583,58.755z"/>
	<path fill="#7B7B7B" d="M422.431,108.186c-0.2-3.249-0.4-6.197-0.6-8.896c-0.3-3.599-0.8-6.047-1.45-7.397
		c-0.949,0.85-1.398,3.299-1.299,7.297c0.05,3.049,0.2,6.048,0.35,8.997c0.05,0.95,0.05,1.849,0.1,2.749
		c0.15,3.848,0.25,6.547,0.301,8.197c0.05,1.499,0,2.499-0.051,2.999h0.3c0.051-0.05,0.55-0.2,1.45-0.5
		c0.899-0.3,1.449-0.45,1.699-0.399c-0.101-1.85-0.3-5.098-0.6-9.646C422.581,110.435,422.481,109.285,422.431,108.186
		L422.431,108.186z"/>
	<path fill="#CDCBCC" d="M378.949,26.668c0.25-0.15,0.149-0.3-0.25-0.45c-0.45-0.15-0.5-0.45-0.25-0.85l-0.15,0.05l-0.05-3.898
		c-66.623,57.627-135.496,57.527-206.517-0.3c-0.05-0.05,0.05,0.35,0.2,1.1s0.05,1.15-0.25,1.25c-0.35,0.1-0.3,0.6,0.15,1.449
		c0.399,0.85-0.05,1.2-1.3,1.05c0.35,0.05,0.75,0.1,1.15,0.2v0.05l-0.05,0.2c72.021,55.328,141.094,55.328,207.117,0
		c0.05-0.05,0.05-0.05,0.1-0.1L378.949,26.668L378.949,26.668z"/>
	<path fill="#CDCBCC" d="M394.292,25.968c-1.6,0-2.999-0.05-4.248-0.15c-72.722,59.926-149.541,59.926-230.508,0
		c-1.799,0.35-4.098,0.55-6.947,0.55c-0.75,0-1.399-0.05-1.999-0.2l3.849,2.049c84.316,61.175,164.833,61.325,241.454,0.5
		c0.1-0.1,0.249-0.15,0.399-0.15c1.149-1.2,1.899-1.949,2.249-2.199c-0.399,0.05-1.1,0.1-2.099,0.1c-0.45,0-0.75-0.15-0.95-0.5
		C395.092,25.968,394.692,25.968,394.292,25.968L394.292,25.968z"/>
</g>
</svg>
