<?xml version="1.0" encoding="utf-8"?>
<!-- Generator: Adobe Illustrator 15.1.0, SVG Export Plug-In . SVG Version: 6.00 Build 0)  -->
<!DOCTYPE svg PUBLIC "-//W3C//DTD SVG 1.1//EN" "http://www.w3.org/Graphics/SVG/1.1/DTD/svg11.dtd">
<svg version="1.1" id="Layer_1" xmlns="http://www.w3.org/2000/svg" xmlns:xlink="http://www.w3.org/1999/xlink" x="0px" y="0px"
	 width="551.386px" height="161.464px" viewBox="0 0 551.386 161.464" enable-background="new 0 0 551.386 161.464"
	 xml:space="preserve">
<polygon fill="#7B7B7B" points="278.588,100.389 275.99,100.389 279.638,105.237 281.038,104.237 278.588,100.389 "/>
<path fill="#6A6A6A" d="M296.232,113.733l-2.699-13.095h-6.897l-2.699,13.095C288.185,115.882,292.283,115.882,296.232,113.733
	L296.232,113.733z"/>
<polygon fill="#999999" points="294.033,103.537 289.784,103.537 290.633,120.931 293.283,120.931 294.033,103.537 "/>
<polygon fill="#999999" points="286.286,103.537 287.135,120.931 289.784,120.931 290.534,103.537 286.286,103.537 "/>
<polygon fill="#6A6A6A" points="295.411,104.887 297.304,104.923 297.573,92.265 294.19,92.379 295.411,104.887 "/>
<polygon fill="#6A6A6A" points="276.848,103.605 278.438,104.64 285.382,94.028 282.448,92.331 276.848,103.605 "/>
<path fill="#6A6A6A" d="M297.431,90.393c-0.45-0.45-0.949-0.649-1.6-0.649c-0.649,0-1.149,0.2-1.6,0.649
	c-0.449,0.45-0.649,0.95-0.649,1.6c0,0.649,0.2,1.149,0.649,1.599c0.45,0.45,0.95,0.65,1.6,0.65c0.65,0,1.149-0.2,1.6-0.65
	s0.649-0.95,0.649-1.599C298.081,91.342,297.881,90.842,297.431,90.393L297.431,90.393z"/>
<path fill="#6A6A6A" d="M286.085,90.493c-0.449-0.45-0.949-0.65-1.6-0.65c-0.649,0-1.149,0.2-1.599,0.65
	c-0.45,0.45-0.65,0.95-0.65,1.599c0,0.65,0.2,1.15,0.65,1.6c0.449,0.45,0.949,0.649,1.599,0.649c0.65,0,1.15-0.2,1.6-0.649
	c0.45-0.45,0.649-0.95,0.649-1.6C286.735,91.442,286.536,90.942,286.085,90.493L286.085,90.493z"/>
<polygon fill="#6A6A6A" points="293.932,104.237 295.631,90.343 284.836,90.343 286.335,104.237 293.932,104.237 "/>
<path fill="#CDCBCC" d="M292.633,84.845c-0.15-0.15-0.25-0.25-0.4-0.399c-0.6-0.55-1.299-0.8-2.148-0.8c-1,0-1.85,0.399-2.6,1.199
	c-0.699,0.8-1.05,1.75-1.05,2.899s0.351,2.099,1.05,2.899c0.25,0.25,0.5,0.5,0.8,0.7c0.55,0.35,1.149,0.5,1.8,0.5
	c0.999,0,1.849-0.399,2.549-1.199c0.749-0.8,1.1-1.75,1.1-2.899S293.382,85.645,292.633,84.845L292.633,84.845z"/>
<path fill="#6A6A6A" d="M296.631,85.794c-0.1-0.1-0.2-0.15-0.35-0.15h-1.85c-0.05,0-0.1,0-0.149,0.05
	c-0.051-0.05-0.15-0.05-0.2-0.05v-8.796h-7.947v8.796h-2.199c-0.149,0-0.249,0.05-0.35,0.15c-0.1,0.1-0.149,0.2-0.149,0.35
	c0,0.15,0.05,0.25,0.149,0.35c0.101,0.1,0.2,0.15,0.35,0.15h10.146c0.05,0,0.149,0,0.2,0c0.05,0,0.05,0,0.1,0c0,0,0,0,0.05,0h1.85
	c0.149,0,0.25-0.05,0.35-0.15c0.1-0.1,0.15-0.2,0.15-0.35c0-0.1,0-0.2-0.051-0.25C296.681,85.845,296.681,85.845,296.631,85.794
	L296.631,85.794z"/>
<polygon fill="#FFFFFF" points="272.441,95.44 269.243,83.146 262.245,83.045 258.846,95.241 272.441,95.44 "/>
<polygon fill="#CDCBCC" points="267.143,95.641 266.444,89.143 264.745,89.243 264.145,95.641 267.143,95.641 "/>
<polygon fill="#CDCBCC" points="260.846,107.636 261.346,94.441 258.647,94.441 259.046,107.636 260.846,107.636 "/>
<polygon fill="#CDCBCC" points="279.232,103.25 272.351,92.476 270.138,94.014 277.838,104.218 279.232,103.25 "/>
<path fill="#FFFFFF" d="M262.645,102.138c-6.748,3.149-9.946,9.247-9.496,18.393h25.689c0.35-9.946-3.049-16.094-10.296-18.393
	H262.645L262.645,102.138z"/>
<polygon fill="#FFFFFF" points="270.542,94.076 270.542,93.242 261.145,93.242 261.145,94.076 263.344,104.037 267.743,104.037 
	270.542,94.076 "/>
<path fill="#FFFFFF" d="M273.141,91.842c-0.5-0.5-1.1-0.75-1.8-0.75c-0.699,0-1.299,0.25-1.799,0.75c-0.5,0.5-0.75,1.1-0.75,1.8
	c0,0.699,0.25,1.299,0.75,1.799c0.5,0.5,1.1,0.75,1.799,0.75c0.7,0,1.3-0.25,1.8-0.75c0.499-0.5,0.749-1.1,0.749-1.799
	C273.89,92.941,273.64,92.342,273.141,91.842L273.141,91.842z"/>
<path fill="#FFFFFF" d="M261.995,91.992c-0.499-0.5-1.1-0.75-1.799-0.75s-1.299,0.25-1.799,0.75c-0.5,0.5-0.75,1.1-0.75,1.799
	c0,0.7,0.25,1.3,0.75,1.8c0.5,0.5,1.1,0.75,1.799,0.75s1.3-0.25,1.799-0.75c0.5-0.5,0.75-1.1,0.75-1.8
	C262.745,93.092,262.495,92.492,261.995,91.992L261.995,91.992z"/>
<path fill="#CDCBCC" d="M265.744,82.346c-0.05,0-0.05,0-0.1,0c-0.851,0.05-1.6,0.45-2.249,1.3c-0.65,0.899-0.95,1.999-0.95,3.249
	s0.3,2.349,0.95,3.199c0.649,0.899,1.449,1.35,2.349,1.35c0.25,0,0.5-0.05,0.75-0.1c0.55-0.15,1.1-0.6,1.55-1.25
	c0.648-0.85,0.999-1.949,0.999-3.199s-0.351-2.349-0.999-3.249C267.393,82.796,266.643,82.346,265.744,82.346L265.744,82.346z"/>
<path fill="#FFFFFF" d="M267.243,81.346c-0.299-0.95-0.6-1.5-0.949-1.599c-0.05,0-0.05,0-0.1,0c-0.15-0.05-0.25-0.1-0.4-0.05
	c-0.149,0-0.3,0-0.449,0.05c-0.551,0-0.9,0.2-1.15,0.55c-0.299,0.45-0.449,0.8-0.399,1.149c-0.749,0-1.199,0.05-1.449,0.2
	s-0.351,0.55-0.351,1.15c0,0.2,0.15,0.35,0.451,0.5v0.1c-0.65,0-1.301,0.3-2.05,0.85c-0.149,0.15-0.351,0.3-0.5,0.35
	c-0.149,0.05-0.149,0.15,0.05,0.25l0.8-0.1c0.649,0,2.499,0,5.647,0.05c2.999,0,4.698-0.05,5.099-0.1
	c-1.25-0.5-1.899-0.899-1.949-1.149c0.2,0.05,0.3,0.05,0.35-0.1c0.05-0.05,0.05-0.25,0.05-0.7c-0.05-1-0.5-1.5-1.449-1.5
	c-0.25,0-0.449,0-0.55,0.05C267.793,81.346,267.593,81.346,267.243,81.346L267.243,81.346z"/>
</svg>
